STARTFONT 2.1
FONT -Monotype-Times New Roman-Bold-I-Normal--50-360-100-100-P-315-iso8859-5
SIZE 36 100 100
FONTBOUNDINGBOX 73 54 -10 -11

STARTPROPERTIES 24
FOUNDRY "Monotype"
FAMILY_NAME "Times New Roman"
WEIGHT_NAME "Bold"
SLANT "I"
SETWIDTH_NAME "Normal"
ADD_STYLE_NAME ""
PIXEL_SIZE 50
POINT_SIZE 360
RESOLUTION_X 100
RESOLUTION_Y 100
SPACING "P"
AVERAGE_WIDTH 315
CHARSET_REGISTRY "iso8859"
CHARSET_ENCODING "5"
FACE_NAME "Times New Roman Bold Inclined ISO Latin Cyrillic"
_DEC_DEVICE_FONTNAMES "PS=timesnewroman-bin-latcyrillic"
COPYRIGHT "Copyright (c) 1993 Monotype Typography Ltd."
CAP_HEIGHT 39
X_HEIGHT 26
WEIGHT 10
QUAD_WIDTH 34
DEFAULT_CHAR 160
FONT_DESCENT 13
FONT_ASCENT 45
ENDPROPERTIES

CHARS 191

STARTCHAR space
ENCODING 32
SWIDTH 250 0
DWIDTH 13 0
BBX 0 0 0 0
BITMAP
ENDCHAR

STARTCHAR exclam
ENCODING 33
SWIDTH 271 0
DWIDTH 14 0
BBX 18 36 0 -1
BITMAP
000E00
001F00
003F00
003F00
007F00
007F00
007F00
007E00
007E00
007C00
007C00
00F800
00F800
00F000
00F000
00E000
00E000
00E000
00C000
01C000
018000
018000
010000
010000
010000
020000
000000
000000
1E0000
3F0000
7F8000
7F8000
7F8000
7F8000
3F0000
1E0000
ENDCHAR

STARTCHAR quotedbl
ENCODING 34
SWIDTH 552 0
DWIDTH 28 0
BBX 22 16 8 19
BITMAP
0F00F0
1F81F8
3F83F8
3F83F8
3F87F0
7F07F0
7F07E0
7E07E0
7C07C0
7C07C0
780780
780780
700700
700700
600600
600400
ENDCHAR

STARTCHAR numbersign
ENCODING 35
SWIDTH 667 0
DWIDTH 33 0
BBX 33 35 2 0
BITMAP
001F00F800
001F00F800
001E00F800
003E00F000
003E00F000
003E01F000
003C01F000
003C01F000
007C01E000
3FFFFFFE00
3FFFFFFE00
3FFFFFFE00
3FFFFFFE00
3FFFFFFE00
00F803C000
00F807C000
00F007C000
00F0078000
01F0078000
01F00F8000
01F00F8000
3FFFFFFE00
3FFFFFFE00
3FFFFFFE00
3FFFFFFE00
3FFFFFFE00
03C01F0000
03C01E0000
07C01E0000
07C03E0000
07803E0000
07803E0000
0F803C0000
0F803C0000
0F807C0000
ENDCHAR

STARTCHAR dollar
ENCODING 36
SWIDTH 500 0
DWIDTH 25 0
BBX 26 41 0 -4
BITMAP
00003000
00003000
0007E000
001FFE00
007C7F80
00F04F80
01F0C700
01E0C700
03E0C300
03E08200
03E18200
03F18200
03F18000
03FB0000
01FF0000
01FF0000
00FF0000
00FF8000
007FC000
003FE000
001FF000
000FF000
000FF800
000FFC00
0019FC00
0018FE00
0018FE00
00107E00
18307E00
18307E00
18307C00
38607C00
3C607C00
3C60F800
3E41F000
3FC3E000
0FFF8000
01FC0000
01800000
01800000
01800000
ENDCHAR

STARTCHAR percent
ENCODING 37
SWIDTH 875 0
DWIDTH 44 0
BBX 43 36 2 -1
BITMAP
001C00000780
006300000F00
01C300001E00
01C380003C00
038380007800
07838000F000
07078001E000
0F078003C000
0F0780078000
0E0F000F0000
1E0F001E0000
1E0E003C0000
1C1E00780000
1C1C00F00000
1C1C01E00000
0C3803C00000
0C6007800000
03800F003800
00001E00C600
00003C038600
000078038700
0000F0070700
0001E00F0700
0003C00E0F00
0007801E0F00
000F001E0F00
001E001C1E00
003C003C1E00
0078003C1C00
00F000383C00
01C000383800
038000383800
070000187000
0E000018C000
1C0000070000
380000000000
ENDCHAR

STARTCHAR ampersand
ENCODING 38
SWIDTH 719 0
DWIDTH 36 0
BBX 37 36 -1 -1
BITMAP
000007E000
00001FF000
000038F800
0000787C00
0000F07C00
0000F07C00
0001F07C00
0001F07C00
0001F0F800
0003F0F800
0003F1F000
0003F1E000
0003F3C000
0003FF0000
0003FC0000
0003F80000
0003F80000
000FFC3FE0
003DFC1F80
00F1FC1F00
01E1FE1E00
07E1FE1C00
0FC0FE1C00
0FC0FF1800
1F80FF3000
1F807FF000
3F807FE000
3FC03FC000
3FC03FC000
3FE01FE000
3FF01FF000
1FF81FFC20
1FFFFFFFC0
0FFFE3FFC0
07FF81FF00
01FC007C00
ENDCHAR

STARTCHAR quoteright
ENCODING 39
SWIDTH 271 0
DWIDTH 14 0
BBX 14 15 4 20
BITMAP
03C0
07E0
0FF0
0FF0
0FF0
0FF0
07F0
03E0
01E0
01C0
01C0
0380
0600
0C00
3000
ENDCHAR

STARTCHAR parenleft
ENCODING 40
SWIDTH 500 0
DWIDTH 25 0
BBX 22 43 6 -9
BITMAP
000030
0000E0
0003C0
000780
000F00
001E00
007C00
007C00
00F800
01F000
03F000
07E000
07E000
0FC000
0FC000
1FC000
1F8000
3F8000
3F8000
3F0000
3F0000
7F0000
7E0000
7E0000
7E0000
7E0000
7E0000
7C0000
7C0000
7C0000
3C0000
3C0000
3C0000
1C0000
1C0000
1C0000
0C0000
0C0000
060000
060000
020000
010000
010000
ENDCHAR

STARTCHAR parenright
ENCODING 41
SWIDTH 500 0
DWIDTH 25 0
BBX 23 43 -2 -9
BITMAP
000200
000100
000100
000180
0001C0
0000C0
0000E0
0000E0
0000E0
0000F0
0000F0
0000F0
0000F0
0000F8
0000F8
0000F8
0001F8
0001F8
0001F8
0001F8
0001F8
0003F8
0003F0
0003F0
0007F0
0007F0
0007E0
000FE0
000FC0
000FC0
001F80
001F80
003F00
003E00
007C00
00F800
00F000
01E000
03C000
078000
0E0000
1C0000
300000
ENDCHAR

STARTCHAR asterisk
ENCODING 42
SWIDTH 500 0
DWIDTH 25 0
BBX 23 19 5 16
BITMAP
003800
007C00
007C00
007C00
003C00
1C3870
3E38F8
3F11F8
3F93F8
1FFFF0
001800
002C00
00CE00
03C780
07C7C0
07C7C0
07C7C0
0783C0
030180
ENDCHAR

STARTCHAR plus
ENCODING 43
SWIDTH 667 0
DWIDTH 33 0
BBX 31 27 3 4
BITMAP
0007C000
0007C000
0007C000
0007C000
0007C000
0007C000
0007C000
0007C000
0007C000
0007C000
0007C000
3FFFFFF8
3FFFFFF8
3FFFFFF8
3FFFFFF8
3FFFFFF8
0007C000
0007C000
0007C000
0007C000
0007C000
0007C000
0007C000
0007C000
0007C000
0007C000
0007C000
ENDCHAR

STARTCHAR comma
ENCODING 44
SWIDTH 271 0
DWIDTH 14 0
BBX 14 15 -4 -9
BITMAP
03C0
07E0
0FF0
0FF0
0FF0
0FF0
07F0
03E0
01E0
01C0
01C0
0380
0600
0C00
3000
ENDCHAR

STARTCHAR minus
ENCODING 45
SWIDTH 667 0
DWIDTH 33 0
BBX 31 5 3 15
BITMAP
3FFFFFF8
3FFFFFF8
3FFFFFF8
3FFFFFF8
3FFFFFF8
ENDCHAR

STARTCHAR period
ENCODING 46
SWIDTH 271 0
DWIDTH 14 0
BBX 11 8 0 -1
BITMAP
1E00
3F00
7F80
7F80
7F80
7F80
3F00
1E00
ENDCHAR

STARTCHAR slash
ENCODING 47
SWIDTH 281 0
DWIDTH 14 0
BBX 28 36 -5 -1
BITMAP
00000FC0
00001F80
00001F80
00003F00
00003F00
00007E00
0000FE00
0000FC00
0001FC00
0001F800
0003F800
0003F000
0007F000
0007E000
000FE000
000FC000
001F8000
001F8000
003F0000
003F0000
007E0000
007E0000
00FC0000
00FC0000
01F80000
01F80000
03F00000
03F00000
07E00000
07E00000
0FC00000
0FC00000
1F800000
1F800000
3F000000
3F000000
ENDCHAR

STARTCHAR zero
ENCODING 48
SWIDTH 500 0
DWIDTH 25 0
BBX 25 36 2 -1
BITMAP
0003E000
000E3800
003C1C00
00781E00
00F81E00
00F01E00
01F01F00
03E01F00
03E01F00
07E01F00
07E01F00
0FC03F00
0FC03F00
1FC03F00
1F803F00
1F807E00
1F807E00
3F807E00
3F007E00
3F00FE00
3F00FC00
7F00FC00
7E01FC00
7E01F800
7E01F800
7E01F800
7C03F000
7C03F000
7C03E000
3C07C000
3C07C000
3C0F8000
1C0F0000
1E1E0000
0E380000
03E00000
ENDCHAR

STARTCHAR one
ENCODING 49
SWIDTH 500 0
DWIDTH 25 0
BBX 25 35 0 0
BITMAP
00000E00
0000FE00
000FFC00
007FFC00
0003FC00
0001FC00
0001F800
0001F800
0003F800
0003F000
0003F000
0007F000
0007F000
0007E000
0007E000
000FE000
000FC000
000FC000
001FC000
001F8000
001F8000
001F8000
003F8000
003F0000
003F0000
007F0000
007E0000
007E0000
007E0000
00FE0000
00FC0000
00FC0000
01FC0000
03FE0000
3FFFE000
ENDCHAR

STARTCHAR two
ENCODING 50
SWIDTH 500 0
DWIDTH 25 0
BBX 25 35 0 0
BITMAP
000FC000
003FF000
007FF800
00FFFC00
00FFFE00
01C1FE00
0300FF00
02007F00
00003F00
00003F00
00003F00
00003F00
00003E00
00003E00
00003E00
00007C00
00007800
0000F800
0001F000
0001E000
0003C000
00078000
000F0000
000E0000
001C0000
00380000
00700C00
00C01800
0180F800
03FFF800
07FFF000
0FFFF000
1FFFE000
3FFFE000
3FFFC000
ENDCHAR

STARTCHAR three
ENCODING 51
SWIDTH 500 0
DWIDTH 25 0
BBX 25 36 1 -1
BITMAP
0003E000
000FF800
001FFC00
003FFE00
0061FE00
0080FE00
00007E00
00007E00
00007E00
00007E00
0000FC00
0000F800
0001F000
0003C000
000F0000
007F8000
03FFC000
003FE000
000FF000
0007F000
0007F800
0003F800
0003F800
0001F800
0001F800
0001F800
0001F000
0001F000
0001F000
0001E000
1801E000
3E03C000
7F078000
7F8E0000
3FFC0000
0FE00000
ENDCHAR

STARTCHAR four
ENCODING 52
SWIDTH 500 0
DWIDTH 25 0
BBX 27 36 0 -1
BITMAP
000003C0
00000780
00000F80
00000F80
00001F80
00003F00
00007F00
0000FF00
0001FE00
0003FE00
00037E00
0006FE00
000CFC00
0018FC00
0031FC00
0071FC00
00E1F800
01C1F800
0183F800
0303F000
0603F000
0C03F000
1C07F000
1807E000
1FFFFF00
1FFFFE00
3FFFFE00
3FFFFE00
000FC000
001F8000
001F8000
001F8000
003F8000
003F0000
003F0000
003F0000
ENDCHAR

STARTCHAR five
ENCODING 53
SWIDTH 500 0
DWIDTH 25 0
BBX 26 35 1 -1
BITMAP
000FFF80
001FFF80
001FFF00
003FFF00
003FFF00
007FFE00
00600000
00C00000
00C00000
01F80000
01FE0000
03FF8000
03FFC000
07FFE000
007FF000
001FF000
0007F800
0003F800
0003F800
0001F800
0001F800
0000F800
0000F800
0000F800
0000F800
0000F000
0000F000
0000E000
0001C000
3801C000
3E038000
7F070000
7FFC0000
3FF00000
0F800000
ENDCHAR

STARTCHAR six
ENCODING 54
SWIDTH 500 0
DWIDTH 25 0
BBX 29 36 0 -1
BITMAP
000001E0
00000F80
00007E00
0001F800
0003F000
000FE000
001FC000
003F8000
007F0000
00FE0000
01FC0000
01FC0000
03F80000
07F00000
07F7E000
0FFFF800
0FF1FC00
1FE07E00
1FC07E00
1FC03F00
3F803F00
3F803F00
3F803F00
3F803F00
3F003F00
3F007F00
3F007F00
3F007E00
3E00FE00
1E00FC00
1E00FC00
1E01F800
0E03F000
0707E000
038F8000
00FE0000
ENDCHAR

STARTCHAR seven
ENCODING 55
SWIDTH 500 0
DWIDTH 25 0
BBX 26 35 3 -1
BITMAP
03FFFF80
03FFFF80
07FFFF00
07FFFE00
0FFFFE00
0FFFFC00
1C001C00
10003800
20003000
00007000
0000E000
0000E000
0001C000
00018000
00038000
00070000
00070000
000E0000
000C0000
001C0000
00380000
00380000
00700000
00600000
00E00000
01C00000
01C00000
03800000
03000000
07000000
0E000000
0C000000
1C000000
18000000
08000000
ENDCHAR

STARTCHAR eight
ENCODING 56
SWIDTH 500 0
DWIDTH 25 0
BBX 27 36 0 -1
BITMAP
0007F800
001F1E00
003E0F00
007E0F80
007C0F80
00FC0FC0
00FC0FC0
00FC0FC0
00FC0FC0
00FC0F80
00FE0F80
00FE0F00
00FF1F00
007F1C00
007FB800
003FE000
001FE000
001FF000
007FF000
01E7F800
07C3F800
0783FC00
0F81FC00
1F01FC00
1F00FC00
3F00FC00
3F00FC00
3F00FC00
3E00FC00
3E00F800
3E00F800
1E01F000
1F01F000
0F03E000
07CFC000
01FF0000
ENDCHAR

STARTCHAR nine
ENCODING 57
SWIDTH 500 0
DWIDTH 25 0
BBX 27 36 0 -1
BITMAP
0007F000
001F3C00
003E0E00
007C0F00
00FC0F00
01FC0F80
01F80F80
03F80FC0
03F00FC0
03F00FC0
07F00FC0
07F01FC0
07E01FC0
07E01FC0
07E03F80
07E03F80
07E03F80
03E07F80
03F07F00
01F8FF00
00FFFE00
007EFE00
0001FC00
0003FC00
0003F800
0007F800
0007F000
000FE000
000FC000
001F8000
003F0000
007E0000
01F80000
03E00000
0F800000
78000000
ENDCHAR

STARTCHAR colon
ENCODING 58
SWIDTH 333 0
DWIDTH 17 0
BBX 15 24 1 -1
BITMAP
01E0
03F0
07F8
07F8
07F8
07F8
03F0
01E0
0000
0000
0000
0000
0000
0000
0000
0000
1E00
3F00
7F80
7F80
7F80
7F80
3F00
1E00
ENDCHAR

STARTCHAR semicolon
ENCODING 59
SWIDTH 333 0
DWIDTH 17 0
BBX 19 32 -2 -9
BITMAP
001E00
003F00
007F80
007F80
007F80
007F80
003F00
001E00
000000
000000
000000
000000
000000
000000
000000
000000
000000
03C000
07E000
0FF000
0FF000
0FF000
0FF000
07F000
03E000
01E000
01C000
01C000
030000
060000
1C0000
300000
ENDCHAR

STARTCHAR less
ENCODING 60
SWIDTH 667 0
DWIDTH 33 0
BBX 30 27 2 4
BITMAP
00000008
00000038
000001F8
000007F8
00001FF8
0000FFF8
0003FFE0
001FFF80
007FFC00
01FFF000
0FFFC000
3FFE0000
3FF80000
3FE00000
3FE00000
3FFC0000
1FFF0000
07FFC000
01FFF800
003FFE00
000FFF80
0001FFF0
00007FF8
00001FF8
000003F8
000000F8
00000018
ENDCHAR

STARTCHAR equal
ENCODING 61
SWIDTH 667 0
DWIDTH 33 0
BBX 31 17 3 9
BITMAP
3FFFFFF8
3FFFFFF8
3FFFFFF8
3FFFFFF8
3FFFFFF8
00000000
00000000
00000000
00000000
00000000
00000000
00000000
3FFFFFF8
3FFFFFF8
3FFFFFF8
3FFFFFF8
3FFFFFF8
ENDCHAR

STARTCHAR greater
ENCODING 62
SWIDTH 667 0
DWIDTH 33 0
BBX 31 27 4 4
BITMAP
20000000
38000000
3E000000
3FC00000
3FF00000
3FFE0000
0FFF8000
03FFE000
00FFFC00
001FFF00
0007FFE0
0000FFF8
00003FF8
00000FF8
00000FF8
00007FF8
0001FFF0
0007FFC0
003FFE00
00FFF800
07FFE000
1FFF0000
3FFC0000
3FE00000
3F800000
3E000000
30000000
ENDCHAR

STARTCHAR question
ENCODING 63
SWIDTH 385 0
DWIDTH 19 0
BBX 21 36 2 -1
BITMAP
007E00
01C780
0387C0
07C3E0
07C3E0
0FE3F0
0FE3F0
0FE3F0
07E7F0
03C7F0
0007E0
000FE0
001FC0
001F80
003F00
007E00
00F800
00F000
01E000
038000
030000
060000
040000
0C0000
0C0000
080000
000000
000000
1E0000
3F0000
7F8000
7F8000
7F8000
7F8000
3F0000
1E0000
ENDCHAR

STARTCHAR at
ENCODING 64
SWIDTH 958 0
DWIDTH 48 0
BBX 47 46 1 -11
BITMAP
000007F80000
00007FFF8000
0003F001E000
000780007800
001E00001C00
003C00000E00
007000000700
00E000000380
01C000000180
0380000000C0
0700000000C0
070007C00040
0E000FEFC060
0E003E6FC060
1C007C2FC020
1C00F83F8020
3801F83F8020
3801F03F8020
3803F03F0020
3003E03F0020
7007E03F0020
7007E07E0060
700FC07E0060
700FC0FE0040
700FC0FE0040
701FC1FC00C0
701F81FC0080
701F82FC0180
301F87F80300
301FCDF80600
381FF9F80C00
381FF9F81808
180FF0FC7010
1C0FE0FFC010
0C03803F0020
0E0000000060
060000000040
070000000080
038000000180
01C000000300
00E000000E00
007000001800
001C00007000
000F0001C000
0003F01F0000
00003FF80000
ENDCHAR

STARTCHAR A
ENCODING 65
SWIDTH 719 0
DWIDTH 36 0
BBX 34 35 -2 0
BITMAP
0000000100
0000000300
0000000700
0000000F00
0000001F00
0000001F00
0000003F00
0000007F00
000000FF00
000001FE00
000001FE00
000003FE00
000006FE00
00000EFE00
00001CFE00
000038FE00
000030FE00
000060FE00
0000C0FE00
0001C0FE00
000380FE00
000300FE00
0007FFFE00
000FFFFE00
001C01FC00
003801FC00
003001FC00
006001FC00
00C001FC00
018001FC00
038001FC00
078001FC00
0F8001FC00
1F8003FE00
3FE01FFF80
ENDCHAR

STARTCHAR B
ENCODING 66
SWIDTH 667 0
DWIDTH 33 0
BBX 36 34 -1 0
BITMAP
003FFFF800
0007FFFF00
0007F87F80
0003F83FC0
0007F81FC0
0007F01FE0
0007F01FE0
0007F01FE0
000FF01FE0
000FE01FC0
000FE03FC0
001FE03F80
001FC07F00
001FC0FE00
003FC3F800
003FFF8000
003FFFC000
003F87F000
007F81F800
007F00FC00
007F00FE00
00FF00FE00
00FE00FF00
00FE00FF00
00FE00FF00
01FE00FF00
01FC00FE00
01FC01FE00
03FC03FC00
03F803FC00
03F80FF800
07F83FE000
0FFFFFC000
7FFFFE0000
ENDCHAR

STARTCHAR C
ENCODING 67
SWIDTH 719 0
DWIDTH 36 0
BBX 38 36 2 -1
BITMAP
00000FFC08
00007FFFF8
0003FC0FF0
0007F003F0
001FC001F0
003F8000F0
00FF000060
01FE000060
03FC000060
03FC000060
07F8000020
0FF0000000
0FF0000000
1FE0000000
3FE0000000
3FC0000000
3FC0000000
3FC0000000
7FC0000000
7F80000000
7F80000000
7F80000000
7F80000000
7F80000000
7F80000000
3F80000000
3F80000000
3FC0000200
1FC0000400
1FE0000C00
0FF0001800
07F8007000
03FE01C000
00FFFF8000
007FFE0000
0007F00000
ENDCHAR

STARTCHAR D
ENCODING 68
SWIDTH 771 0
DWIDTH 39 0
BBX 41 34 -2 0
BITMAP
003FFFF00000
0007FFFE0000
0003FC3F8000
0003FC1FC000
0003F80FE000
0003F807F000
0007F803F800
0007F003FC00
0007F001FC00
0007F001FC00
000FF001FE00
000FE001FE00
000FE001FE00
001FE001FE00
001FC001FE00
001FC001FE00
003FC001FE00
003F8001FE00
003F8003FC00
003F8003FC00
007F8003FC00
007F0007F800
007F0007F800
00FF0007F000
00FE000FF000
00FE001FE000
01FE001FC000
01FE003F8000
01FC007F0000
01FC00FE0000
03FC01F80000
03FE0FE00000
07FFFF800000
3FFFF8000000
ENDCHAR

STARTCHAR E
ENCODING 69
SWIDTH 667 0
DWIDTH 33 0
BBX 37 34 -1 0
BITMAP
007FFFFFF0
000FFFFFE0
0007F80FE0
0007F003E0
0007F001E0
0007F000C0
000FF00040
000FE00040
000FE00000
001FE00000
001FC00800
001FC01800
003FC03000
003FC07000
003F80F000
003FFFE000
007FFFE000
007F01E000
007F00E000
00FF00C000
00FE004000
00FE004000
00FE000000
01FE000000
01FC000000
01FC000200
03FC000600
03F8000E00
03F8001C00
07F8007C00
07F801FC00
07FC07F800
1FFFFFF800
3FFFFFF000
ENDCHAR

STARTCHAR F
ENCODING 70
SWIDTH 604 0
DWIDTH 30 0
BBX 36 34 -1 0
BITMAP
007FFFFFC0
000FFFFFC0
0007F81F80
0007F80780
0007F00380
0007F00380
000FF00180
000FF00100
000FE00000
000FE00000
001FE02000
001FC06000
001FC04000
003FC1C000
003FC7C000
003FFFC000
007FFF8000
007F878000
007F038000
007F030000
00FF010000
00FE010000
00FE000000
01FE000000
01FE000000
01FC000000
01FC000000
03FC000000
03F8000000
03F8000000
07F8000000
07F8000000
1FFC000000
7FFF800000
ENDCHAR

STARTCHAR G
ENCODING 71
SWIDTH 719 0
DWIDTH 36 0
BBX 38 36 1 -1
BITMAP
00000FFC18
0000FFFFF0
0003FC07F0
000FF001F0
003FC001F0
007F8000F0
00FF000060
01FE000060
03FC000060
07F8000060
0FF8000060
0FF0000000
1FF0000000
1FE0000000
3FE0000000
3FC0000000
3FC0000000
7FC0000000
7F8007FFE0
7F8001FF80
7F8000FF00
7F8000FF00
7F8000FE00
7F8000FE00
3F8001FE00
3F8001FC00
3F8001FC00
1FC003FC00
1FC003F800
0FC003F800
07E007F800
07F007F800
01F807F000
00FC0FF000
003FFFC000
0007FC0000
ENDCHAR

STARTCHAR H
ENCODING 72
SWIDTH 823 0
DWIDTH 41 0
BBX 47 34 -1 0
BITMAP
003FFFC3FFFC
000FFE007FE0
0007F8007FC0
0007F8003F80
0007F8003F80
0007F0007F80
0007F0007F00
000FF0007F00
000FE000FF00
000FE000FE00
001FE000FE00
001FC000FE00
001FC001FE00
001FC001FC00
003FC001FC00
003F8003FC00
003FFFFFF800
007FFFFFF800
007F0003F800
007F0007F800
00FF0007F000
00FF0007F000
00FE000FF000
00FE000FE000
01FE000FE000
01FC001FE000
01FC001FE000
03FC001FC000
03F8003FC000
03F8003FC000
07F8003F8000
07F8007FC000
0FFC00FFC000
7FFF8FFFF800
ENDCHAR

STARTCHAR I
ENCODING 73
SWIDTH 385 0
DWIDTH 19 0
BBX 27 34 -2 0
BITMAP
003FFF80
0007FE00
0007FC00
0003F800
0007F800
0007F800
0007F000
0007F000
000FF000
000FE000
000FE000
001FE000
001FE000
001FC000
003FC000
003FC000
003F8000
003F8000
007F8000
007F0000
007F0000
00FF0000
00FF0000
00FE0000
00FE0000
01FE0000
01FC0000
01FC0000
03FC0000
03F80000
03F80000
07FC0000
0FFC0000
3FFF8000
ENDCHAR

STARTCHAR J
ENCODING 74
SWIDTH 500 0
DWIDTH 25 0
BBX 31 35 -2 -1
BITMAP
0003FFFC
00007FE0
00003FC0
00003FC0
00003F80
00003F80
00007F80
00007F00
00007F00
00007F00
0000FF00
0000FE00
0000FE00
0001FE00
0001FC00
0001FC00
0003FC00
0003F800
0003F800
0003F800
0007F800
0007F000
0007F000
000FF000
000FE000
000FE000
1E0FE000
3F1FC000
3F1FC000
3F1F8000
3F3F8000
3E3F0000
3E7E0000
1FFC0000
07E00000
ENDCHAR

STARTCHAR K
ENCODING 75
SWIDTH 719 0
DWIDTH 36 0
BBX 43 34 -2 0
BITMAP
003FFFC7FF80
0007FF03FE00
0003FC01F800
0003FC01E000
0003F803C000
0003F8070000
0007F80E0000
0007F01C0000
0007F0380000
0007F0700000
000FF0E00000
000FE3800000
000FE7000000
001FEF800000
001FDF800000
001FFFC00000
003FFFC00000
003FDFC00000
003F9FE00000
003F8FE00000
007F8FE00000
007F0FF00000
007F07F00000
00FF07F00000
00FF07F80000
00FE03F80000
00FE03F80000
01FE03FC0000
01FC01FC0000
01FC01FE0000
03FC01FE0000
03FC01FF0000
0FFE03FF8000
3FFFCFFFC000
ENDCHAR

STARTCHAR L
ENCODING 76
SWIDTH 667 0
DWIDTH 33 0
BBX 34 34 -2 0
BITMAP
003FFFC000
0007FE0000
0003FC0000
0003FC0000
0003F80000
0003F80000
0007F80000
0007F00000
0007F00000
000FF00000
000FE00000
000FE00000
000FE00000
001FE00000
001FC00000
001FC00000
003FC00000
003F800000
003F800000
003F800000
007F800000
007F000000
007F000000
00FF000000
00FE000000
00FE000180
01FE000300
01FE000700
01FC000E00
01FC003E00
03FC00FE00
03FE07FC00
0FFFFFFC00
3FFFFFF800
ENDCHAR

STARTCHAR M
ENCODING 77
SWIDTH 990 0
DWIDTH 49 0
BBX 56 34 -2 0
BITMAP
003FFC00000FFE
0007FC00001FF0
0003FE00003FE0
0003FE00007FC0
0003FE00007FC0
0003FE0000FFC0
0002FE0001FF80
0006FE0003BF80
0006FE00037F80
00067F00067F00
000C7F000E7F00
000C7F001C7F00
000C7F0018FF00
00087F0030FE00
00187F0070FE00
00187F8061FE00
00183F80C1FC00
00303F8181FC00
00303F8383FC00
00303F8303FC00
00203F8603F800
00603F8C03F800
00603FDC07F800
00601FD807F000
00C01FF007F000
00C01FE00FF000
00C01FE00FE000
01801FC00FE000
01801F800FE000
01800F001FE000
03800F001FC000
07800E003FE000
0FC00C007FF000
3FF80C01FFFE00
ENDCHAR

STARTCHAR N
ENCODING 78
SWIDTH 771 0
DWIDTH 39 0
BBX 46 34 -2 0
BITMAP
003FF8001FF0
000FFC0007C0
0003FC000380
0003FE000380
0003FE000300
0006FF000300
0006FF000600
00067F800600
00047F800600
000C3FC00C00
000C3FC00C00
000C1FE00C00
00181FE00800
00180FF01800
00180FF01800
001007F81800
003007F83000
003003FC3000
003003FC3000
006001FE2000
006001FE6000
006000FF6000
00C000FF4000
00C0007FC000
00C0007FC000
0080003FC000
0180003F8000
0180001F8000
0180001F8000
0380000F0000
0380000F0000
078000070000
0FC000070000
3FF000020000
ENDCHAR

STARTCHAR O
ENCODING 79
SWIDTH 771 0
DWIDTH 39 0
BBX 37 36 2 -1
BITMAP
00000FE000
00007FFC00
0001F07E00
0007C03F80
001F801F80
003F000FC0
007E000FE0
00FC000FE0
01FC000FE0
03F8000FF0
03F8000FF0
07F0000FF0
0FF0000FF0
0FF0000FF0
1FE0000FF0
1FE0001FF0
3FE0001FF0
3FC0001FE0
3FC0001FE0
3FC0003FE0
7FC0003FC0
7F80003FC0
7F80007F80
7F80007F80
7F80007F00
7F8000FE00
7F8000FE00
3F8001FC00
3F8001F800
1F8003F000
1FC007E000
0FC00FC000
07E01F0000
03F07C0000
01FFF00000
003F800000
ENDCHAR

STARTCHAR P
ENCODING 80
SWIDTH 667 0
DWIDTH 33 0
BBX 37 34 -1 0
BITMAP
007FFFF800
000FFFFE00
0007F8FF80
0007F83F80
0007F81FC0
0007F01FE0
0007F01FE0
000FF01FE0
000FE01FE0
000FE01FE0
001FE01FE0
001FE03FC0
001FC03FC0
001FC07F80
003FC0FF80
003F81FE00
003F83FC00
007FFFF000
007FFF8000
007F000000
007F000000
00FF000000
00FE000000
00FE000000
01FE000000
01FC000000
01FC000000
01FC000000
03FC000000
03F8000000
03F8000000
07F8000000
0FFC000000
3FFF800000
ENDCHAR

STARTCHAR Q
ENCODING 81
SWIDTH 771 0
DWIDTH 39 0
BBX 37 45 3 -10
BITMAP
00000FE000
00007FFC00
0001F07F00
0007C03F80
001F801FC0
003F000FC0
007E000FE0
00FE000FE0
01FC000FE0
03F8000FF0
03F8000FF0
07F0000FF0
0FF0000FF0
0FF0000FF0
1FE0000FF0
1FE0001FF0
3FE0001FE0
3FC0001FE0
3FC0001FE0
3FC0003FE0
7FC0003FC0
7F80003FC0
7F80007F80
7F80007F00
7F8000FF00
7F8000FE00
3F8001FC00
3F8001F800
3F8003F800
1F8007F000
1FC007C000
0FC00F8000
07E03E0000
03F8F80000
00FFE00000
000C000000
0038000000
0070000000
00E0000000
01FFE000C0
03FFFE0380
07FFFFFF00
0FFFFFFC00
3CFFFFF000
0003FFC000
ENDCHAR

STARTCHAR R
ENCODING 82
SWIDTH 719 0
DWIDTH 36 0
BBX 37 34 -2 0
BITMAP
003FFFFC00
0007FFFF80
0003FC3FC0
0003F81FE0
0003F80FE0
0003F80FF0
0007F80FF0
0007F00FF0
0007F00FF0
000FF00FF0
000FE00FE0
000FE01FE0
000FE01FC0
001FE03F80
001FC07F00
001FC3FC00
003FFFF000
003F9FC000
003F9FE000
003F8FE000
007F0FE000
007F0FF000
007F07F000
00FF07F000
00FE07F800
00FE03F800
01FE03F800
01FC03FC00
01FC01FC00
01FC01FC00
03FC01FE00
03FC00FE00
0FFE00FF00
3FFFC0FFC0
ENDCHAR

STARTCHAR S
ENCODING 83
SWIDTH 604 0
DWIDTH 30 0
BBX 35 36 -1 -1
BITMAP
0000FF0080
0003FFF780
000FE0FF00
001FC03F00
001F801F00
003F000F00
003F000F00
007F000600
007F000600
007F000600
007F800600
007FC00000
003FE00000
003FF00000
001FF80000
001FFC0000
000FFE0000
0007FF0000
0003FF8000
0001FFC000
0000FFE000
00003FE000
00001FF000
08001FF000
08000FF000
0C0007F000
0C0007F000
1C0007F000
1E0007F000
1E0007E000
1F000FE000
1F000FC000
3F801F8000
3FE07F0000
3FFFFE0000
200FF00000
ENDCHAR

STARTCHAR T
ENCODING 84
SWIDTH 667 0
DWIDTH 33 0
BBX 36 34 3 0
BITMAP
03FFFFFFE0
07FFFFFFC0
07F8FE3FC0
07C1FE07C0
0F01FC0380
0E01FC0380
0C03FC0180
0803F80180
1003F80100
0003F80000
0007F80000
0007F00000
0007F00000
000FF00000
000FE00000
000FE00000
001FE00000
001FE00000
001FC00000
001FC00000
003FC00000
003F800000
003F800000
007F800000
007F000000
007F000000
007F000000
00FF000000
00FE000000
00FE000000
01FE000000
01FE000000
07FF000000
3FFFE00000
ENDCHAR

STARTCHAR U
ENCODING 85
SWIDTH 771 0
DWIDTH 39 0
BBX 40 35 4 -1
BITMAP
0FFFF01FFC
01FF8007F8
00FF0003E0
00FE0001C0
00FE0001C0
01FE000180
01FC000180
01FC000180
03FC000300
03FC000300
03F8000300
03F8000600
07F8000600
07F0000600
07F0000600
0FF0000C00
0FF0000C00
0FE0000C00
0FE0001800
1FE0001800
1FC0001800
1FC0001800
3FC0003000
3FC0003000
3F80003000
3F80006000
3F80006000
3F8000C000
3FC001C000
1FC0018000
1FE0070000
0FF80E0000
07FFFC0000
01FFF00000
003F800000
ENDCHAR

STARTCHAR V
ENCODING 86
SWIDTH 719 0
DWIDTH 36 0
BBX 34 35 7 -1
BITMAP
7FFE01FF00
0FF8007E00
0FF0003C00
0FF0003800
0FF0003000
0FF0006000
0FF000E000
0FE001C000
0FE0018000
0FE0030000
0FE0060000
0FE00E0000
0FE01C0000
0FE0380000
0FE0300000
0FE0600000
0FE0C00000
0FE1C00000
1FE3800000
1FE3000000
1FC6000000
1FCC000000
1FDC000000
1FF8000000
1FF0000000
1FE0000000
1FC0000000
1FC0000000
1F80000000
1F00000000
1E00000000
3C00000000
3800000000
3800000000
3000000000
ENDCHAR

STARTCHAR W
ENCODING 87
SWIDTH 990 0
DWIDTH 49 0
BBX 50 35 5 -1
BITMAP
3FFF1FFF80FF00
0FF807FE003E00
07F003FC003C00
07F003F8003800
07F003F8003000
07F003F8006000
07F003F800E000
07F003F800C000
07F003F8018000
0FF007F8030000
0FE00FF8070000
0FE01FF8060000
0FE01BF80C0000
0FE033F81C0000
0FE073F8380000
0FE0E3F8300000
0FE0C3F0600000
0FE183F0E00000
0FE387F0C00000
0FE707F1800000
0FE607F3000000
0FEC07F7000000
0FFC07F6000000
0FF807FC000000
0FF007FC000000
1FE007F8000000
1FE007F0000000
1FC007E0000000
1F8007E0000000
1F0007C0000000
1F000780000000
1E000700000000
1C000F00000000
18000E00000000
18000C00000000
ENDCHAR

STARTCHAR X
ENCODING 88
SWIDTH 719 0
DWIDTH 36 0
BBX 43 34 -2 0
BITMAP
007FFF03FF80
001FFC00FE00
000FF800FC00
0007F800F000
0007F800E000
0003F801C000
0003FC038000
0003FC070000
0001FC0E0000
0001FE1C0000
0000FE380000
0000FE700000
0000FFE00000
00007FC00000
00007F800000
00007F800000
00003F800000
00003FC00000
00003FC00000
00007FC00000
0000FFE00000
0001CFE00000
00038FE00000
00070FF00000
000E07F00000
001C07F80000
003807F80000
007003F80000
00E003FC0000
01C003FC0000
03C003FE0000
07C003FE0000
1FE007FF0000
3FF81FFFC000
ENDCHAR

STARTCHAR Y
ENCODING 89
SWIDTH 719 0
DWIDTH 36 0
BBX 36 34 5 0
BITMAP
7FFFC0FFC0
0FFE003F80
07FC001F00
07F8001E00
03F8001C00
03FC001800
03FC003000
01FC006000
01FE00E000
01FE01C000
00FE038000
00FF030000
00FF060000
007F0E0000
007F1C0000
007FB80000
003FF00000
003FE00000
003FC00000
003FC00000
003F800000
003F800000
007F800000
007F000000
007F000000
00FF000000
00FF000000
00FE000000
00FE000000
01FE000000
01FC000000
03FE000000
07FF000000
3FFFE00000
ENDCHAR

STARTCHAR Z
ENCODING 90
SWIDTH 719 0
DWIDTH 36 0
BBX 41 34 -1 0
BITMAP
000FFFFFFF00
001FFFFFFE00
001FC007FC00
001E000FF800
003C001FF000
0030003FE000
0020007FE000
006000FFC000
000001FF8000
000003FF0000
000003FE0000
000007FC0000
00000FF80000
00001FF00000
00003FE00000
00007FE00000
0000FFC00000
0001FF800000
0003FF000000
0003FE000000
0007FC000000
000FF8000000
001FF0000000
003FE0000000
007FC0000000
00FFC0008000
01FF80018000
03FF00070000
07FE000F0000
07FC001E0000
0FF8007E0000
1FF003FE0000
3FFFFFFC0000
7FFFFFFC0000
ENDCHAR

STARTCHAR bracketleft
ENCODING 91
SWIDTH 500 0
DWIDTH 25 0
BBX 28 43 1 -9
BITMAP
0003FFC0
0003F800
0007F000
0007E000
0007E000
000FE000
000FC000
000FC000
000FC000
001FC000
001F8000
001F8000
003F8000
003F0000
003F0000
003F0000
007F0000
007E0000
007E0000
00FE0000
00FC0000
00FC0000
00FC0000
01F80000
01F80000
01F80000
03F80000
03F00000
03F00000
03F00000
07E00000
07E00000
07E00000
0FE00000
0FC00000
0FC00000
0FC00000
1F800000
1F800000
1F800000
3F800000
3FC00000
3FFC0000
ENDCHAR

STARTCHAR backslash
ENCODING 92
SWIDTH 281 0
DWIDTH 14 0
BBX 10 36 4 -1
BITMAP
1F00
1F00
1F00
1F00
1F00
1F00
1F00
1F00
1F00
1F00
1F00
3F00
3F00
3F00
3F00
3F00
3E00
3E00
3E00
3E00
3E00
3E00
3E00
3E00
3E00
3E00
3E00
3E00
3E00
3E00
3E00
3E00
3E00
3E00
7E00
7E00
ENDCHAR

STARTCHAR bracketright
ENCODING 93
SWIDTH 500 0
DWIDTH 25 0
BBX 28 43 -3 -9
BITMAP
0003FFC0
00003FC0
00001F80
00001F80
00001F80
00003F80
00003F00
00003F00
00003F00
00007E00
00007E00
00007E00
0000FE00
0000FC00
0000FC00
0000FC00
0001F800
0001F800
0001F800
0003F800
0003F000
0003F000
0003F000
0007E000
0007E000
0007E000
000FE000
000FC000
000FC000
001FC000
001F8000
001F8000
001F8000
003F8000
003F0000
003F0000
003F0000
007E0000
007E0000
00FE0000
00FE0000
01FC0000
3FFC0000
ENDCHAR

STARTCHAR asciicircum
ENCODING 94
SWIDTH 510 0
DWIDTH 26 0
BBX 24 17 3 17
BITMAP
001800
003C00
003C00
007E00
007E00
00FF00
01EF80
01E780
03C7C0
03C3C0
0781E0
0781E0
0F00F0
1E00F8
1E0078
3C007C
3C003C
ENDCHAR

STARTCHAR underscore
ENCODING 95
SWIDTH 500 0
DWIDTH 25 0
BBX 29 3 -3 -6
BITMAP
3FFFFFE0
3FFFFFE0
3FFFFFE0
ENDCHAR

STARTCHAR quoteleft
ENCODING 96
SWIDTH 271 0
DWIDTH 14 0
BBX 13 15 5 20
BITMAP
0060
01C0
0300
0600
0C00
1C00
3C00
3E00
7F00
7F80
7F80
7F80
7F80
3F00
1E00
ENDCHAR

STARTCHAR a
ENCODING 97
SWIDTH 500 0
DWIDTH 25 0
BBX 27 24 -1 -1
BITMAP
00078000
001E5F80
007C5F80
00F83F80
01F03F00
01F07F00
03E07F00
07E07E00
07C07E00
0FC07E00
0F80FE00
1F80FC00
1F81FC00
1F81FC00
3F03F800
3F03F800
3F07F800
3F0FF800
3F9BF080
3FF3F100
3FF3FB00
1FE3FE00
0FC3FC00
0701F000
ENDCHAR

STARTCHAR b
ENCODING 98
SWIDTH 500 0
DWIDTH 25 0
BBX 26 36 0 -1
BITMAP
00038000
00FF8000
00FF8000
003F8000
003F0000
003F0000
007F0000
007E0000
007E0000
007E0000
00FC0000
00FC0000
00FCF800
01FDFC00
01FBFE00
01FC7F00
01F87F00
03F83F00
03F03F00
03F03F00
07F03F00
07E03F00
07E03F00
0FE07F00
0FC07E00
0FC07E00
0FC07E00
1F80FC00
1F80FC00
1F81F800
3F81F000
3F03E000
3F07C000
3F0F8000
1F1F0000
03F80000
ENDCHAR

STARTCHAR c
ENCODING 99
SWIDTH 437 0
DWIDTH 22 0
BBX 23 24 -1 -1
BITMAP
0003F0
000E38
00383C
00787C
01F0FC
01E0FC
03E0F8
07C0F8
0FC000
0F8000
1F8000
1F8000
1F8000
3F0000
3F0000
3F0000
3F0000
3F8000
3F8020
3FC060
1FE3C0
1FFF00
0FFE00
03F800
ENDCHAR

STARTCHAR d
ENCODING 100
SWIDTH 500 0
DWIDTH 25 0
BBX 31 36 -1 -1
BITMAP
00000078
00001FF8
00000FF0
000007F0
000007F0
000007F0
000007E0
000007E0
00000FE0
00000FC0
00000FC0
00001FC0
00079FC0
001E5F80
00783F80
00F83F80
01F03F00
03E03F00
03E07F00
07E07E00
0FC07E00
0FC0FE00
1F80FE00
1F80FC00
1F81FC00
3F81FC00
3F03F800
3F03F800
3F07F800
3F0FF800
3F9BF080
3FF3F100
3FF3FB00
1FE3FE00
0FC3FC00
0701F000
ENDCHAR

STARTCHAR e
ENCODING 101
SWIDTH 437 0
DWIDTH 22 0
BBX 24 24 -1 -1
BITMAP
0003F8
000EFC
00387C
00787C
00F07C
01E0FC
03E0F8
07C0F8
07C1F0
0FC1E0
0F83C0
1F8700
1FBC00
3FC000
3F0000
3F0000
3F0000
3F0000
3F8020
3F8060
1FE380
1FFF00
0FFE00
03F000
ENDCHAR

STARTCHAR f
ENCODING 102
SWIDTH 333 0
DWIDTH 17 0
BBX 36 46 -10 -11
BITMAP
0000001F80
00000079C0
000000F1E0
000001E3E0
000003C3E0
000007C1C0
00000F8000
00000F8000
00001F8000
00001F0000
00003F0000
00007F0000
0000FE0000
0003FFC000
0003FFC000
0003FFC000
0000FC0000
0000FC0000
0000FC0000
0000FC0000
0001F80000
0001F80000
0001F80000
0001F80000
0003F00000
0003F00000
0003F00000
0003F00000
0007E00000
0007E00000
0007E00000
0007E00000
000FC00000
000FC00000
000FC00000
000F800000
001F800000
001F000000
001F000000
001E000000
003E000000
1E3C000000
3E78000000
3E70000000
3CE0000000
1F80000000
ENDCHAR

STARTCHAR g
ENCODING 103
SWIDTH 500 0
DWIDTH 25 0
BBX 31 33 -4 -11
BITMAP
0003F800
000F8FF8
003F0FF8
007E0FF8
007E0F80
00FC0FC0
00FC0FC0
01FC1FC0
01F81FC0
01F81F80
00F83F80
00F83F00
00787E00
0038FC00
001FE000
00700000
00E00000
01E00000
03FC0000
03FFC000
03FFF000
01FFF800
00FFFC00
01FFFE00
0F07FE00
1E00FE00
3C007E00
3C003E00
3C003C00
3E003C00
1E007800
0F81E000
01FF0000
ENDCHAR

STARTCHAR h
ENCODING 104
SWIDTH 500 0
DWIDTH 25 0
BBX 27 35 -2 0
BITMAP
0001C000
007FC000
007FC000
003F8000
001F8000
003F8000
003F8000
003F0000
003F0000
007F0000
007E0000
007E0000
00FE0F00
00FC3F80
00FC7F80
00FCFF80
01F99F80
01FB1F80
01FA1F80
03FC3F00
03F83F00
03F83F00
07F07F00
07F07E00
07E07E00
07E0FE00
0FC0FC00
0FC0FC00
0FC0FC80
1FC1F880
1F81F900
1F81FF00
3F81FE00
3F01FC00
3F00F000
ENDCHAR

STARTCHAR i
ENCODING 105
SWIDTH 271 0
DWIDTH 14 0
BBX 17 36 -1 -1
BITMAP
001800
007E00
007F00
00FF00
00FF00
007E00
003E00
000000
000000
000000
000000
000000
003C00
0FF800
0FF800
03F800
03F000
03F000
03F000
07F000
07E000
07E000
07E000
0FC000
0FC000
0FC000
1FC000
1F8000
1F8000
1F8800
3F1000
3F1000
3FA000
3FC000
3F8000
1F0000
ENDCHAR

STARTCHAR j
ENCODING 106
SWIDTH 271 0
DWIDTH 14 0
BBX 25 47 -9 -11
BITMAP
00001C00
00007E00
00007E00
0000FF00
0000FF00
00007E00
00007E00
00003C00
00000000
00000000
00000000
00000000
00000000
00001C00
000FFC00
000FFC00
0003F800
0001F800
0001F800
0001F800
0003F000
0003F000
0003F000
0003F000
0007E000
0007E000
0007E000
0007E000
000FC000
000FC000
000FC000
001FC000
001F8000
001F8000
001F8000
003F8000
003F0000
003F0000
003E0000
007E0000
007C0000
007C0000
3C780000
7CF80000
7CF00000
79C00000
3F000000
ENDCHAR

STARTCHAR k
ENCODING 107
SWIDTH 552 0
DWIDTH 28 0
BBX 29 35 -1 0
BITMAP
0003C000
00FFC000
00FF8000
003F8000
003F8000
003F0000
003F0000
003F0000
007F0000
007E0000
007E0000
00FE0000
00FC0000
00FC3FF0
00FC0FC0
01FC0700
01F80E00
01F81800
03F83000
03F06000
03F1E000
07F3E000
07E7E000
07EFE000
07FFF000
0FE3F000
0FC3F000
0FC3F000
1FC3F800
1F81F840
1F81F880
3F81FF00
3F00FE00
3F00FC00
3F007800
ENDCHAR

STARTCHAR l
ENCODING 108
SWIDTH 271 0
DWIDTH 14 0
BBX 18 36 -1 -1
BITMAP
000780
01FF80
01FF00
007F00
007F00
007E00
007E00
00FE00
00FC00
00FC00
00FC00
01FC00
01F800
01F800
03F800
03F000
03F000
07F000
07E000
07E000
07E000
0FE000
0FC000
0FC000
1FC000
1F8000
1F8000
1F8000
3F8000
3F1800
3F1000
7F2000
7FC000
7FC000
3F0000
1E0000
ENDCHAR

STARTCHAR m
ENCODING 109
SWIDTH 771 0
DWIDTH 39 0
BBX 40 23 -1 0
BITMAP
001C0F80F8
0FFC3FC1FC
07FC7FC3FC
03F8FFC7FC
01F99FCCFC
03FB1FD8FC
03F61FB0FC
03F41FA1FC
03F83FC1F8
07F83F81F8
07F03F81F8
07E03F03F0
0FE07F03F0
0FE07E03F0
0FC07E07E0
1FC0FE07E0
1F80FC07E0
1F80FC0FE4
1F81FC0FCC
3F81F80FE8
3F01F80FF0
3F01F80FE0
7F03F807C0
ENDCHAR

STARTCHAR n
ENCODING 110
SWIDTH 500 0
DWIDTH 25 0
BBX 27 23 -2 0
BITMAP
001E0E00
07FE1F80
07FC7F80
01FCFF80
01FCFF80
01F91F80
01FA1F80
01FC3F80
03F43F00
03F83F00
03F87F00
07F07E00
07F07E00
07E0FE00
0FE0FC00
0FC0FC00
0FC0FC00
1FC1F880
1F81F980
1F81FB00
1F81FE00
3F81FC00
3F00F800
ENDCHAR

STARTCHAR o
ENCODING 111
SWIDTH 500 0
DWIDTH 25 0
BBX 25 24 0 -1
BITMAP
0007F000
001C7C00
00783E00
00F03E00
01E03F00
03E03F00
07C03F00
0FC03F00
0FC03F00
1F807F00
3F807F00
3F807E00
3F00FE00
7F00FE00
7F00FC00
7F00FC00
7E01F800
7E01F000
7E03E000
3E03C000
3E078000
1F0F0000
1F9C0000
07F00000
ENDCHAR

STARTCHAR p
ENCODING 112
SWIDTH 500 0
DWIDTH 25 0
BBX 32 34 -7 -11
BITMAP
000071E0
003FF3F8
003FF7F8
000FFFFC
0007F1FC
0007E0FC
000FE0FC
000FC0FC
000FC0FC
001FC0FC
001F80FC
001F80F8
001F81F8
003F81F8
003F01F0
003F03F0
007F03E0
007E03E0
007E07C0
00FE0780
00FE0F00
00FC1E00
00FE3800
01FFE000
01F80000
01F80000
03F80000
03F00000
03F00000
03F00000
07F00000
07F00000
1FF80000
7FFE0000
ENDCHAR

STARTCHAR q
ENCODING 113
SWIDTH 500 0
DWIDTH 25 0
BBX 27 34 -1 -11
BITMAP
000F8000
001EDF80
00787F80
00F87F00
01F07F00
03E07F00
03E07E00
07E07E00
0FC07E00
0FC0FE00
0F80FC00
1F81FC00
1F81FC00
3F81F800
3F03F800
3F07F800
3F07F000
3F0BF000
3F9BF000
3FF7F000
3FE7E000
1FE7E000
1FCFE000
070FC000
000FC000
001FC000
001FC000
001F8000
001F8000
003F8000
003F8000
007F8000
00FFE000
03FFF000
ENDCHAR

STARTCHAR r
ENCODING 114
SWIDTH 385 0
DWIDTH 19 0
BBX 22 23 -1 0
BITMAP
00E0E0
0FE1F0
0FE3F0
07E3F0
07E7F0
07C7F0
07CDE0
07C8E0
07C800
07D000
0FD000
0FB000
0FA000
0FE000
0FC000
1FC000
1F8000
1F8000
1F8000
1F8000
3F0000
3F0000
3F0000
ENDCHAR

STARTCHAR s
ENCODING 115
SWIDTH 385 0
DWIDTH 19 0
BBX 20 23 -1 0
BITMAP
007E60
01E7C0
03C1C0
07C1C0
07C0C0
07E0C0
07E0C0
07F000
03F800
03FC00
01FC00
01FE00
00FE00
007F00
003F00
303F00
301F00
301F00
381E00
381E00
3C1C00
7E3800
63E000
ENDCHAR

STARTCHAR t
ENCODING 116
SWIDTH 333 0
DWIDTH 17 0
BBX 18 29 0 -1
BITMAP
000600
000C00
001C00
003C00
00F800
01F800
0FFF00
1FFF00
1FFF00
03F000
03F000
07F000
07E000
07E000
07E000
0FE000
0FC000
0FC000
0FC000
1F8000
1F8000
1F8000
1F8000
3F0800
3F1000
3F2000
3FE000
3F8000
0E0000
ENDCHAR

STARTCHAR u
ENCODING 117
SWIDTH 500 0
DWIDTH 25 0
BBX 26 24 -1 -1
BITMAP
00380000
0FF83F80
0FF83F00
03F03F00
03F03F00
03F07F00
07E07E00
07E07E00
07E0FE00
07E0FC00
0FC0FC00
0FC1FC00
0FC1F800
1F83F800
1F83F800
1F87F800
1F83F000
3F0BF000
3F17F200
3F27E600
3FE7E400
3FC7F800
3F87F000
1E03E000
ENDCHAR

STARTCHAR v
ENCODING 118
SWIDTH 438 0
DWIDTH 22 0
BBX 21 24 0 -1
BITMAP
01C1E0
3FC3E0
1FC3F0
0FC3F0
0FC3F0
0FE1F0
07E0E0
07E0E0
07E0E0
07E0C0
07E0C0
07E180
07E100
07E300
07E600
07E400
07E800
07F000
07E000
07C000
078000
070000
060000
040000
ENDCHAR

STARTCHAR w
ENCODING 119
SWIDTH 667 0
DWIDTH 33 0
BBX 32 24 1 -1
BITMAP
0180103C
3FC0387E
1FC0387E
0FC0787E
0FC0783E
0FC0F83E
0FC1F81E
0FC1F81C
0FC3F80C
07C7F818
07E5F818
07E9F810
07F9F830
07F0FC60
07E0FC40
07E0FC80
07C0FD00
0780FF00
0780FE00
0F00FC00
0F00F800
0E00F000
0C00E000
0C00C000
ENDCHAR

STARTCHAR x
ENCODING 120
SWIDTH 552 0
DWIDTH 28 0
BBX 28 24 -1 -1
BITMAP
000C03C0
03FE07C0
04FE0FE0
007E1FE0
003F3FC0
003F2000
003F4000
003FC000
001F8000
001F8000
001F8000
001F8000
001F8000
001FC000
000FC000
001FC000
001FC000
002FE000
0067E100
3EC7E300
7F87FE00
7F03FC00
7E03F800
3C00E000
ENDCHAR

STARTCHAR y
ENCODING 121
SWIDTH 500 0
DWIDTH 25 0
BBX 30 34 -4 -11
BITMAP
000E01C0
01FF03E0
00FF03F0
003F03F0
003F83F0
001F81F0
001F8060
001F8060
001F8060
001F8040
001F80C0
001F8080
001F8180
001F8300
001F8200
001F8600
001FCC00
000FC800
000FD000
000FF000
000FE000
000FC000
000F8000
000F8000
000F0000
000E0000
000C0000
18080000
3E180000
7E300000
7FE00000
7FC00000
3F000000
1E000000
ENDCHAR

STARTCHAR z
ENCODING 122
SWIDTH 437 0
DWIDTH 22 0
BBX 24 26 -2 -4
BITMAP
01FFFC
03FFF8
03FFF0
03FFF0
03FFE0
0700C0
060180
040300
000600
000400
000800
001800
003000
006000
00C000
018000
038000
03C000
07E070
0FF0F0
1FF1F8
3FF1F8
01F9F0
00F8F0
003DE0
000F80
ENDCHAR

STARTCHAR braceleft
ENCODING 123
SWIDTH 396 0
DWIDTH 20 0
BBX 16 44 2 -9
BITMAP
0006
003E
00F0
01E0
03C0
03C0
07C0
07C0
07C0
07E0
07E0
07E0
07E0
03E0
03E0
03E0
03E0
03C0
03C0
0780
0E00
3C00
7000
1C00
0F00
0780
03C0
03E0
03E0
03E0
03E0
03E0
03E0
07E0
07E0
07C0
07C0
07C0
07C0
03C0
03E0
01E0
00F8
003E
ENDCHAR

STARTCHAR bar
ENCODING 124
SWIDTH 219 0
DWIDTH 11 0
BBX 9 46 1 -11
BITMAP
3E00
3E00
3E00
3E00
3E00
3E00
3E00
3E00
3E00
3E00
3E00
3E00
3E00
3E00
3E00
3E00
3E00
3E00
3E00
3E00
3E00
3E00
3E00
3E00
3E00
3E00
3E00
3E00
3E00
3E00
3E00
3E00
3E00
3E00
3E00
3E00
3E00
3E00
3E00
3E00
3E00
3E00
3E00
3E00
3E00
3E00
ENDCHAR

STARTCHAR braceright
ENCODING 125
SWIDTH 396 0
DWIDTH 20 0
BBX 16 44 2 -9
BITMAP
2000
3E00
0F80
07C0
03E0
03E0
03F0
03F0
03F0
03F0
03F0
07E0
07E0
07E0
07E0
07C0
07C0
03C0
03E0
01E0
00F0
003C
0006
0038
00F0
01E0
03C0
03C0
07C0
07C0
07C0
07E0
07E0
07E0
07E0
03E0
03E0
03E0
03E0
03C0
07C0
0780
1F00
7C00
ENDCHAR

STARTCHAR asciitilde
ENCODING 126
SWIDTH 667 0
DWIDTH 33 0
BBX 30 9 3 13
BITMAP
01E00018
07FC0018
0FFF8038
1FFFF030
1FFFFFF0
380FFFF0
3003FFE0
30007FC0
30000F00
ENDCHAR

STARTCHAR space
ENCODING 160
SWIDTH 250 0
DWIDTH 15 0
BBX 0 0 0 0
BITMAP
ENDCHAR

STARTCHAR afii10023
ENCODING 161
SWIDTH 667 0
DWIDTH 33 0
BBX 37 43 -1 0
BITMAP
0000F80780
0000F80FC0
0001FC1FC0
0001FC1FC0
0001FC1FC0
0000F80F80
0000700700
0000000000
0000000000
007FFFFFE0
000FFFFFE0
0007F80FE0
0007F003E0
0007F001C0
0007F000C0
000FF000C0
000FE000C0
000FE00000
001FE00000
001FC00800
001FC01000
001FC03000
003FC07000
003F80E000
003FFFE000
007FFFE000
007F03E000
007F00C000
007F00C000
00FF00C000
00FE008000
00FE000000
01FE000000
01FC000000
01FC000200
03FC000600
03FC000C00
03F8001C00
03F8007C00
07F801F800
07FC07F800
1FFFFFF000
3FFFFFF000
ENDCHAR

STARTCHAR afii10051
ENCODING 162
SWIDTH 820 0
DWIDTH 41 0
BBX 40 34 1 0
BITMAP
01FFFFFFE0
01FFFFFFE0
03F1FE0FC0
03C1FC03C0
0381FC01C0
0703FC01C0
0603FC0080
0403F80080
0003F80000
0007F80000
0007F00000
0007F01F80
000FF0FFE0
000FE1FFF0
000FE7FFF8
001FEE07FC
001FF803FC
001FF001FE
001FE001FE
003FC001FE
003F8001FE
003F8001FE
007F8001FC
007F0001FC
007F0001FC
00FF0003F8
00FF0003F8
00FE0003F0
00FE0007F0
01FE0007E0
01FE000FC0
03FE001F80
07FF067F00
3FFFC3FC00
ENDCHAR

STARTCHAR afii10052
ENCODING 163
SWIDTH 634 0
DWIDTH 32 0
BBX 40 42 -2 0
BITMAP
000003FF80
000007FE00
000007F000
00000FC000
00001F0000
00001C0000
0000000000
0000000000
001FFFFFFC
0003FFFFFC
0003FC01F8
0003FC0078
0003F80038
0003F80038
0007F80010
0007F00010
0007F00010
000FF00000
000FF00000
000FE00000
000FE00000
001FE00000
001FC00000
001FC00000
003FC00000
003FC00000
003F800000
003F800000
007F800000
007F000000
007F000000
00FF000000
00FE000000
00FE000000
01FE000000
01FE000000
01FC000000
01FC000000
03FC000000
03FC000000
0FFE000000
3FFF800000
ENDCHAR

STARTCHAR afii10053
ENCODING 164
SWIDTH 695 0
DWIDTH 35 0
BBX 39 36 2 -1
BITMAP
000007FC08
00001FFF98
00007F87F0
0001FC01F0
0003F800F0
000FE000E0
001FC00060
003F800060
007F800060
00FF000040
01FE000040
01FE000000
03FC000000
07F8000000
07F8000000
0FF0000000
0FF0000000
1FFFFF8000
1FFFFF0000
3FE0000000
3FC0000000
3FC0000000
7FC0000000
7F80000000
7F80000000
7F80000000
7F80000000
7F80000000
3F80000800
3F80003000
3FC000E000
1FC0038000
0FF01E0000
07FFF80000
03FFE00000
007E000000
ENDCHAR

STARTCHAR afii10054
ENCODING 165
SWIDTH 604 0
DWIDTH 30 0
BBX 35 36 -1 -1
BITMAP
0000FF0080
0003FFF780
000FE0FF00
001FC03F00
001F801F00
003F000F00
003F000F00
007F000600
007F000600
007F000600
007F800600
007FC00000
003FE00000
003FF00000
001FF80000
001FFC0000
000FFE0000
0007FF0000
0003FF8000
0001FFC000
0000FFE000
00003FE000
00001FF000
08001FF000
08000FF000
0C0007F000
0C0007F000
1C0007F000
1E0007F000
1E0007E000
1F000FE000
1F000FC000
3F801F8000
3FE07F0000
3FFFFE0000
200FF00000
ENDCHAR

STARTCHAR afii10055
ENCODING 166
SWIDTH 385 0
DWIDTH 19 0
BBX 27 34 -2 0
BITMAP
003FFF80
0007FE00
0007FC00
0003F800
0007F800
0007F800
0007F000
0007F000
000FF000
000FE000
000FE000
001FE000
001FE000
001FC000
003FC000
003FC000
003F8000
003F8000
007F8000
007F0000
007F0000
00FF0000
00FF0000
00FE0000
00FE0000
01FE0000
01FC0000
01FC0000
03FC0000
03F80000
03F80000
07FC0000
0FFC0000
3FFF8000
ENDCHAR

STARTCHAR afii10056
ENCODING 167
SWIDTH 385 0
DWIDTH 19 0
BBX 30 43 -1 0
BITMAP
001E01E0
003E03F0
007F07F0
007F07F0
007F07F0
003E03E0
001C01C0
00000000
00000000
007FFF00
000FFC00
0007F800
0007F000
0007F000
000FF000
000FE000
000FE000
001FE000
001FC000
001FC000
001FC000
003FC000
003F8000
003F8000
007F8000
007F0000
007F0000
007F0000
00FF0000
00FE0000
00FE0000
01FE0000
01FC0000
01FC0000
01FC0000
03FC0000
03F80000
03F80000
07F80000
07F80000
0FF80000
1FFC0000
7FFF8000
ENDCHAR

STARTCHAR afii10057
ENCODING 168
SWIDTH 500 0
DWIDTH 25 0
BBX 31 35 -2 -1
BITMAP
0003FFFC
00007FE0
00003FC0
00003FC0
00003F80
00003F80
00007F80
00007F00
00007F00
00007F00
0000FF00
0000FE00
0000FE00
0001FE00
0001FC00
0001FC00
0003FC00
0003F800
0003F800
0003F800
0007F800
0007F000
0007F000
000FF000
000FE000
000FE000
1E0FE000
3F1FC000
3F1FC000
3F1F8000
3F3F8000
3E3F0000
3E7E0000
1FFC0000
07E00000
ENDCHAR

STARTCHAR afii10058
ENCODING 169
SWIDTH 948 0
DWIDTH 47 0
BBX 49 35 -3 -1
BITMAP
0001FFFFFFC000
00003FFFFE0000
00001C03FC0000
00001803F80000
00001807F80000
00001807F00000
00001807F00000
0000300FF00000
0000300FF00000
0000300FE00000
0000600FE00000
0000601FE00000
0000601FC00000
0000601FC00000
0000C03FC00000
0000C03FC00000
0000C03FFF0000
0001803FFFE000
0001807F83F800
0001807F01FC00
0003007F00FE00
000300FF00FE00
000300FE00FF00
000600FE00FF00
000601FE00FF00
000601FE00FF00
000C01FC00FE00
000C01FC01FE00
0C1C03FC03FE00
3E1803F803FC00
3F3003F80FF800
7FF007F81FF000
3FE00FFFFFC000
3FC07FFFFC0000
1F000000000000
ENDCHAR

STARTCHAR afii10059
ENCODING 170
SWIDTH 1011 0
DWIDTH 51 0
BBX 50 34 -1 0
BITMAP
007FFF8FFFE000
000FFC03FF0000
0007F803FE0000
0007F803FC0000
0007F003FC0000
0007F003F80000
000FF003F80000
000FE007F80000
000FE007F00000
001FE007F00000
001FC00FF00000
001FC00FF00000
001FC00FE00000
003FC00FE00000
003F801FE00000
003FFFFFFF8000
007FFFFFFFF000
007F003FC3FC00
007F003F80FE00
00FF003F807F00
00FF007F807F00
00FE007F807F80
00FE007F007F80
01FE007F007F80
01FC00FF007F80
01FC00FE007F80
03FC00FE00FF00
03F801FE00FF00
03F801FE01FF00
07F801FC03FE00
07F803FC07FC00
0FF803FC1FF800
1FFC07FFFFE000
7FFE3FFFFE0000
ENDCHAR

STARTCHAR afii10060
ENCODING 171
SWIDTH 804 0
DWIDTH 40 0
BBX 38 34 1 0
BITMAP
01FFFFFF80
01FFFFFF80
03F1FE1F80
03C1FC0F00
0381FC0700
0701FC0300
0603FC0200
0403F80200
0003F80000
0007F80000
0007F00000
0007F01F80
000FF0FFE0
000FF3FFF0
000FE7FFF0
000FEE0FF8
001FFC07F8
001FF007F8
001FE007F8
003FC007F0
003F8007F0
003F800FF0
007F800FE0
007F800FE0
007F000FE0
007F001FE0
00FF001FC0
00FE001FC0
00FE003FC0
01FE003F80
01FE003F80
03FE007F80
07FF00FFC0
3FFFC7FFF0
ENDCHAR

STARTCHAR afii10061
ENCODING 172
SWIDTH 717 0
DWIDTH 36 0
BBX 42 42 -2 0
BITMAP
000001FFC000
000001FF0000
000003FC0000
000007F00000
000007C00000
00000F000000
000000000000
000000000000
003FFFC03C00
0007FE00FF00
0003FC01FF00
0003FC01FF80
0003F803FF00
0003F8071F00
0007F8060E00
0007F0040000
0007F00C0000
0007F00C0000
000FF0180000
000FE0380000
000FE0300000
001FE0600000
001FC0C00000
001FC3800000
003FFF000000
003FFFC00000
003F9FC00000
003F8FE00000
007F8FE00000
007F0FF00000
007F07F00000
00FF07F80000
00FE07F80000
00FE03F80000
01FE03FC0000
01FC03FC0000
01FC01FC0000
01FC01FE0000
03FC01FE0000
03FC00FF0000
07FE00FF8000
3FFF80FFC000
ENDCHAR

STARTCHAR hyphen
ENCODING 173
SWIDTH 333 0
DWIDTH 17 0
BBX 17 5 0 9
BITMAP
7FFF00
7FFF00
7FFF00
7FFF00
7FFF00
ENDCHAR

STARTCHAR afii10062
ENCODING 174
SWIDTH 711 0
DWIDTH 36 0
BBX 39 44 4 -1
BITMAP
0003801800
0003C03C00
0007C07C00
0003E0F800
0003F1F800
0000FFE000
00003F8000
0000000000
0000000000
3FFFC03FF8
0FFE000FE0
07FC000780
03FC000700
03FC000700
01FC000600
01FE000C00
01FE001C00
00FE001800
00FE003000
00FF003000
007F006000
007F00C000
007F80C000
007F818000
003F838000
003FC30000
003FC60000
001FC60000
001FCC0000
001FFC0000
000FF80000
000FF00000
000FF00000
0007E00000
0007E00000
0007C00000
1E07800000
3E03800000
7F03000000
7F07000000
3F0E000000
3F9C000000
1FF8000000
07E0000000
ENDCHAR

STARTCHAR afii10145
ENCODING 175
SWIDTH 808 0
DWIDTH 40 0
BBX 48 44 -2 -10
BITMAP
001FFFE1FFFC
0007FE003FE0
0003FC003FC0
0003FC003FC0
0003F8003FC0
0003F8003F80
0007F8003F80
0007F0007F80
0007F0007F00
0007F0007F00
000FF000FF00
000FE000FF00
000FE000FE00
001FE000FE00
001FC001FE00
001FC001FC00
003FC001FC00
003F8003FC00
003F8003F800
003F8003F800
007F8003F800
007F0007F800
007F0007F000
00FF0007F000
00FE000FF000
00FE000FE000
01FE000FE000
01FE001FE000
01FC001FC000
01FC001FC000
03FC003FC000
03FC007FC000
07FFFFFFE000
3FFFFFFFFC00
0003FE000000
0001F8000000
0000F0000000
0000F0000000
0000E0000000
0000C0000000
0000C0000000
000080000000
000080000000
000080000000
ENDCHAR

STARTCHAR afii10017
ENCODING 176
SWIDTH 719 0
DWIDTH 36 0
BBX 34 35 -2 0
BITMAP
0000000100
0000000300
0000000700
0000000F00
0000001F00
0000001F00
0000003F00
0000007F00
000000FF00
000001FE00
000001FE00
000003FE00
000006FE00
00000EFE00
00001CFE00
000038FE00
000030FE00
000060FE00
0000C0FE00
0001C0FE00
000380FE00
000300FE00
0007FFFE00
000FFFFE00
001C01FC00
003801FC00
003001FC00
006001FC00
00C001FC00
018001FC00
038001FC00
078001FC00
0F8001FC00
1F8003FE00
3FE01FFF80
ENDCHAR

STARTCHAR afii10018
ENCODING 177
SWIDTH 667 0
DWIDTH 33 0
BBX 38 34 -1 0
BITMAP
003FFFFFF0
0007FFFFF0
0007F807E0
0007F801E0
0007F800E0
0007F000C0
0007F000C0
000FF00040
000FE00000
000FE00000
000FE00000
001FC00000
001FC00000
001FC00000
003FC00000
003FFF0000
003FFFE000
007F87F800
007F01FC00
007F00FE00
007F00FE00
00FF00FF00
00FE00FF00
00FE00FF00
01FE00FF00
01FC00FF00
01FC01FE00
03FC01FE00
03FC03FE00
03F807FC00
07F80FF800
07F83FF000
0FFFFFC000
7FFFFC0000
ENDCHAR

STARTCHAR afii10019
ENCODING 178
SWIDTH 667 0
DWIDTH 33 0
BBX 36 34 -1 0
BITMAP
003FFFF800
0007FFFF00
0007F87F80
0003F83FC0
0007F81FC0
0007F01FE0
0007F01FE0
0007F01FE0
000FF01FE0
000FE01FC0
000FE03FC0
001FE03F80
001FC07F00
001FC0FE00
003FC3F800
003FFF8000
003FFFC000
003F87F000
007F81F800
007F00FC00
007F00FE00
00FF00FE00
00FE00FF00
00FE00FF00
00FE00FF00
01FE00FF00
01FC00FE00
01FC01FE00
03FC03FC00
03F803FC00
03F80FF800
07F83FE000
0FFFFFC000
7FFFFE0000
ENDCHAR

STARTCHAR afii10020
ENCODING 179
SWIDTH 619 0
DWIDTH 31 0
BBX 40 34 -2 0
BITMAP
001FFFFFFC
0003FFFFFC
0003FC01F8
0003FC0078
0003F80038
0003F80038
0007F80010
0007F00010
0007F00010
000FF00000
000FF00000
000FE00000
000FE00000
001FE00000
001FC00000
001FC00000
003FC00000
003F800000
003F800000
003F800000
007F800000
007F000000
007F000000
00FF000000
00FE000000
00FE000000
01FE000000
01FE000000
01FC000000
01FC000000
03FC000000
03FC000000
0FFE000000
3FFF800000
ENDCHAR

STARTCHAR afii10021
ENCODING 180
SWIDTH 707 0
DWIDTH 35 0
BBX 47 44 -6 -10
BITMAP
00007FFFFFF8
00000FFFFFE0
000007003FC0
000007007F80
000007007F80
000006007F00
000006007F00
00000600FF00
00000C00FE00
00000C00FE00
00000C01FE00
00001801FC00
00001801FC00
00001803FC00
00003003FC00
00003003F800
00003003F800
00006007F800
00006007F000
0000C007F000
0000C00FF000
0001800FE000
0001800FE000
0003000FE000
0003001FE000
0006001FC000
000E001FC000
000C003FC000
0018003F8000
0038003F8000
0070007F8000
00E000FF8000
03FFFFFFC000
0FFFFFFFF800
0FE00003F000
1F800001F000
1E000000F000
1C0000006000
180000006000
380000006000
300000006000
200000004000
600000004000
400000004000
ENDCHAR

STARTCHAR afii10022
ENCODING 181
SWIDTH 667 0
DWIDTH 33 0
BBX 37 34 -1 0
BITMAP
007FFFFFF0
000FFFFFE0
0007F80FE0
0007F003E0
0007F001E0
0007F000C0
000FF00040
000FE00040
000FE00000
001FE00000
001FC00800
001FC01800
003FC03000
003FC07000
003F80F000
003FFFE000
007FFFE000
007F01E000
007F00E000
00FF00C000
00FE004000
00FE004000
00FE000000
01FE000000
01FC000000
01FC000200
03FC000600
03F8000E00
03F8001C00
07F8007C00
07F801FC00
07FC07F800
1FFFFFF800
3FFFFFF000
ENDCHAR

STARTCHAR afii10024
ENCODING 182
SWIDTH 953 0
DWIDTH 48 0
BBX 56 34 -4 0
BITMAP
0000F00FFFC070
0003F803FFC1FC
0003FC03FE03FC
0007FE03FC07FE
0007FE03FC07FE
0003C603F80C7C
00018607F80C38
00000607F81800
00000607F01800
00000C07F01800
00000C0FF03000
00000C0FE03000
00000C0FE06000
00000C1FE06000
00000E1FE0C000
0000061FC38000
000003FFFF0000
00003FFFFF0000
00007F3FBF8000
0001FE3F9FC000
0003FC7F9FE000
0007F87F0FE000
000FF87F0FE000
000FF0FF0FF000
001FE0FF07F000
003FC0FE07F000
007FC0FE07F000
00FF81FE07F000
00FF01FC03F800
01FE01FC03F800
03FE03FC03F800
07FC03FC01FC00
0FF807FE01FE00
3FF03FFF01FF00
ENDCHAR

STARTCHAR afii10025
ENCODING 183
SWIDTH 538 0
DWIDTH 27 0
BBX 30 36 -2 -1
BITMAP
00087F00
001FFFC0
001F0FE0
001C07F0
003807F0
003007F8
002007F8
004007F8
004007F8
000007F0
00000FF0
00000FE0
00001FC0
00003F80
00007F00
0001FC00
001FE000
001FFC00
0001FF00
00007F80
00003F80
00003FC0
00003FC0
00003FC0
00003FC0
00003FC0
00003FC0
00007F80
00007F80
2000FF00
3001FE00
1C03FE00
0F07F800
03FFF000
01FFC000
003F0000
ENDCHAR

STARTCHAR afii10026
ENCODING 184
SWIDTH 812 0
DWIDTH 41 0
BBX 48 34 -2 0
BITMAP
001FFFE1FFFC
0007FE003FF0
0003FC003FE0
0003FC001FC0
0003F8003FC0
0003F8003F80
0007F8007F80
0007F000FF80
0007F001FF80
0007F0037F00
000FF0077F00
000FE00EFF00
000FE01CFE00
001FE038FE00
001FC071FE00
001FC0E1FC00
003FC1C1FC00
003F8381FC00
003F8703FC00
003F8E03F800
007F8C03F800
007F1807F800
007F3007F000
00FF6007F000
00FEC00FF000
00FFC00FE000
01FF800FE000
01FF000FE000
01FE001FE000
01FC001FC000
03FC001FC000
03FC003FC000
0FFE007FE000
3FFF87FFFC00
ENDCHAR

STARTCHAR afii10027
ENCODING 185
SWIDTH 812 0
DWIDTH 41 0
BBX 48 43 -2 0
BITMAP
000003C01E00
000003E01E00
000003E03E00
000001F03C00
000000F8F800
0000003FE000
000000000000
000000000000
000000000000
001FFFE1FFFC
0007FE003FF0
0003FC003FE0
0003FC001FC0
0003F8003FC0
0003F8003F80
0007F8007F80
0007F000FF80
0007F001FF80
0007F0037F00
000FF0077F00
000FE00EFF00
000FE01CFE00
001FE038FE00
001FC071FE00
001FC0E1FC00
003FC1C1FC00
003F8381FC00
003F8703FC00
003F8E03F800
007F8C03F800
007F1807F800
007F3007F000
00FF6007F000
00FEC00FF000
00FFC00FE000
01FF800FE000
01FF000FE000
01FE001FE000
01FC001FC000
03FC001FC000
03FC003FC000
0FFE007FE000
3FFF87FFFC00
ENDCHAR

STARTCHAR afii10028
ENCODING 186
SWIDTH 717 0
DWIDTH 36 0
BBX 42 34 -2 0
BITMAP
003FFFC03C00
0007FE00FF00
0003FC01FF00
0003FC01FF80
0003F803FF00
0003F8071F00
0007F8060E00
0007F0040000
0007F00C0000
0007F00C0000
000FF0180000
000FE0380000
000FE0300000
001FE0600000
001FC0C00000
001FC3800000
003FFF000000
003FFFC00000
003F9FC00000
003F8FE00000
007F8FF00000
007F0FF00000
007F07F00000
00FF07F80000
00FE07F80000
00FE03F80000
01FE03FC0000
01FC03FC0000
01FC01FC0000
01FC01FE0000
03FC01FE0000
03FC00FF0000
07FE00FF8000
3FFF80FFC000
ENDCHAR

STARTCHAR afii10029
ENCODING 187
SWIDTH 723 0
DWIDTH 36 0
BBX 45 35 -3 -1
BITMAP
0001FFFFFFE0
00003FFFFF00
00001C00FE00
00001801FE00
00001801FC00
00001801FC00
00001803FC00
00003003F800
00003003F800
00003007F800
00006007F000
00006007F000
00006007F000
0000400FF000
0000C00FE000
0000C00FE000
0000C01FE000
0001801FC000
0001801FC000
0001801FC000
0001003FC000
0003003F8000
0003003F8000
0006007F8000
0006007F0000
0006007F0000
000C00FF0000
000C00FE0000
0C0C00FE0000
3E1800FE0000
3F3001FE0000
7FF001FE0000
3FE007FF0000
3FC03FFFC000
1F0000000000
ENDCHAR

STARTCHAR afii10030
ENCODING 188
SWIDTH 990 0
DWIDTH 49 0
BBX 56 34 -2 0
BITMAP
003FFC00000FFE
0007FC00001FF0
0003FE00003FE0
0003FE00007FC0
0003FE00007FC0
0003FE0000FFC0
0002FE0001FF80
0006FE0003BF80
0006FE00037F80
00067F00067F00
000C7F000E7F00
000C7F001C7F00
000C7F0018FF00
00087F0030FE00
00187F0070FE00
00187F8061FE00
00183F80C1FC00
00303F8181FC00
00303F8383FC00
00303F8303FC00
00203F8603F800
00603F8C03F800
00603FDC07F800
00601FD807F000
00C01FF007F000
00C01FE00FF000
00C01FE00FE000
01801FC00FE000
01801F800FE000
01800F001FE000
03800F001FC000
07800E003FE000
0FC00C007FF000
3FF80C01FFFE00
ENDCHAR

STARTCHAR afii10031
ENCODING 189
SWIDTH 823 0
DWIDTH 41 0
BBX 47 34 -1 0
BITMAP
003FFFC3FFFC
000FFE007FE0
0007F8007FC0
0007F8003F80
0007F8003F80
0007F0007F80
0007F0007F00
000FF0007F00
000FE000FF00
000FE000FE00
001FE000FE00
001FC000FE00
001FC001FE00
001FC001FC00
003FC001FC00
003F8003FC00
003FFFFFF800
007FFFFFF800
007F0003F800
007F0007F800
00FF0007F000
00FF0007F000
00FE000FF000
00FE000FE000
01FE000FE000
01FC001FE000
01FC001FE000
03FC001FC000
03F8003FC000
03F8003FC000
07F8003F8000
07F8007FC000
0FFC00FFC000
7FFF8FFFF800
ENDCHAR

STARTCHAR afii10032
ENCODING 190
SWIDTH 771 0
DWIDTH 39 0
BBX 37 36 2 -1
BITMAP
00000FE000
00007FFC00
0001F07E00
0007C03F80
001F801F80
003F000FC0
007E000FE0
00FC000FE0
01FC000FE0
03F8000FF0
03F8000FF0
07F0000FF0
0FF0000FF0
0FF0000FF0
1FE0000FF0
1FE0001FF0
3FE0001FF0
3FC0001FE0
3FC0001FE0
3FC0003FE0
7FC0003FC0
7F80003FC0
7F80007F80
7F80007F80
7F80007F00
7F8000FE00
7F8000FE00
3F8001FC00
3F8001F800
1F8003F000
1FC007E000
0FC00FC000
07E01F0000
03F07C0000
01FFF00000
003F800000
ENDCHAR

STARTCHAR afii10033
ENCODING 191
SWIDTH 811 0
DWIDTH 41 0
BBX 48 34 -2 0
BITMAP
001FFFFFFFFE
0007FFFFFFF0
0003FC001FE0
0003FC001FC0
0003F8003FC0
0003F8003F80
0007F8003F80
0007F0003F80
0007F0007F80
0007F0007F00
000FF0007F00
000FE000FF00
000FE000FE00
001FE000FE00
001FC001FE00
001FC001FC00
003FC001FC00
003FC001FC00
003F8003FC00
003F8003F800
007F8003F800
007F0007F800
007F0007F000
00FF0007F000
00FE000FF000
00FE000FE000
00FE000FE000
01FE000FE000
01FC001FE000
01FC001FC000
03FC003FC000
03FC003FC000
0FFE007FE000
3FFF87FFFC00
ENDCHAR

STARTCHAR afii10034
ENCODING 192
SWIDTH 667 0
DWIDTH 33 0
BBX 37 34 -1 0
BITMAP
007FFFF800
000FFFFE00
0007F8FF80
0007F83F80
0007F81FC0
0007F01FE0
0007F01FE0
000FF01FE0
000FE01FE0
000FE01FE0
001FE01FE0
001FE03FC0
001FC03FC0
001FC07F80
003FC0FF80
003F81FE00
003F83FC00
007FFFF000
007FFF8000
007F000000
007F000000
00FF000000
00FE000000
00FE000000
01FE000000
01FC000000
01FC000000
01FC000000
03FC000000
03F8000000
03F8000000
07F8000000
0FFC000000
3FFF800000
ENDCHAR

STARTCHAR afii10035
ENCODING 193
SWIDTH 719 0
DWIDTH 36 0
BBX 38 36 2 -1
BITMAP
00000FFC08
00007FFFF8
0003FC0FF0
0007F003F0
001FC001F0
003F8000F0
00FF000060
01FE000060
03FC000060
03FC000060
07F8000020
0FF0000000
0FF0000000
1FE0000000
3FE0000000
3FC0000000
3FC0000000
3FC0000000
7FC0000000
7F80000000
7F80000000
7F80000000
7F80000000
7F80000000
7F80000000
3F80000000
3F80000000
3FC0000200
1FC0000400
1FE0000C00
0FF0001800
07F8007000
03FE01C000
00FFFF8000
007FFE0000
0007F00000
ENDCHAR

STARTCHAR afii10036
ENCODING 194
SWIDTH 667 0
DWIDTH 33 0
BBX 36 34 3 0
BITMAP
03FFFFFFE0
07FFFFFFC0
07F8FE3FC0
07C1FE07C0
0F01FC0380
0E01FC0380
0C03FC0180
0803F80180
1003F80100
0003F80000
0007F80000
0007F00000
0007F00000
000FF00000
000FE00000
000FE00000
001FE00000
001FE00000
001FC00000
001FC00000
003FC00000
003F800000
003F800000
007F800000
007F000000
007F000000
007F000000
00FF000000
00FE000000
00FE000000
01FE000000
01FE000000
07FF000000
3FFFE00000
ENDCHAR

STARTCHAR afii10037
ENCODING 195
SWIDTH 711 0
DWIDTH 36 0
BBX 39 35 4 -1
BITMAP
3FFFC03FF8
0FFE000FE0
07FC000780
03FC000700
03FC000700
01FC000600
01FE000C00
01FE001C00
00FE001800
00FE003000
00FF003000
007F006000
007F00C000
007F80C000
007F818000
003F838000
003FC30000
003FC60000
001FC60000
001FCC0000
001FFC0000
000FF80000
000FF00000
000FF00000
0007E00000
0007E00000
0007C00000
1E07800000
3E03800000
7F03000000
7F07000000
3F0E000000
3F9C000000
1FF8000000
07E0000000
ENDCHAR

STARTCHAR afii10038
ENCODING 196
SWIDTH 862 0
DWIDTH 43 0
BBX 41 34 3 0
BITMAP
00007FFFC000
00000FFC0000
000007F80000
000007F00000
00001FF80000
0007FFFFC000
001F0FE1F000
007C0FE0F800
01F81FE07C00
03F01FC07C00
07F01FC07E00
0FE01FC07E00
1FC03FC07F00
1FC03F807F00
3FC03F807F00
3F807F807F00
3F807F00FF00
7F807F00FE00
7F00FF00FE00
7F00FE01FE00
7F00FE01FC00
7F00FE01F800
3F01FE03F800
3F01FC07F000
1F01FC07E000
1F03FC0FC000
0F83F81F0000
03E3F87C0000
00FFFFE00000
0007F8000000
0007F0000000
000FF0000000
001FF8000000
01FFFF000000
ENDCHAR

STARTCHAR afii10039
ENCODING 197
SWIDTH 719 0
DWIDTH 36 0
BBX 43 34 -2 0
BITMAP
007FFF03FF80
001FFC00FE00
000FF800FC00
0007F800F000
0007F800E000
0003F801C000
0003FC038000
0003FC070000
0001FC0E0000
0001FE1C0000
0000FE380000
0000FE700000
0000FFE00000
00007FC00000
00007F800000
00007F800000
00003F800000
00003FC00000
00003FC00000
00007FC00000
0000FFE00000
0001CFE00000
00038FE00000
00070FF00000
000E07F00000
001C07F80000
003807F80000
007003F80000
00E003FC0000
01C003FC0000
03C003FE0000
07C003FE0000
1FE007FF0000
3FF81FFFC000
ENDCHAR

STARTCHAR afii10040
ENCODING 198
SWIDTH 808 0
DWIDTH 40 0
BBX 48 44 -2 -10
BITMAP
001FFFE1FFFC
0007FE003FE0
0003FC003FC0
0003FC003FC0
0003F8003FC0
0003F8003F80
0007F8003F80
0007F0007F80
0007F0007F00
0007F0007F00
000FF000FF00
000FE000FF00
000FE000FE00
001FE000FE00
001FC001FE00
001FC001FC00
003FC001FC00
003F8003FC00
003F8003F800
003F8003F800
007F8003F800
007F0007F800
007F0007F000
00FF0007F000
00FE000FF000
00FE000FE000
01FE000FE000
01FE001FE000
01FC001FC000
01FC001FC000
03FC003FC000
03FC007FC000
07FFFFFFE000
3FFFFFFFFC00
00000001F800
00000000F800
000000007800
000000003000
000000003000
000000003000
000000003000
000000002000
000000002000
000000002000
ENDCHAR

STARTCHAR afii10041
ENCODING 199
SWIDTH 749 0
DWIDTH 37 0
BBX 38 34 5 0
BITMAP
7FFFC7FFF8
0FFC00FFC0
0FF8007F80
0FF0007F00
0FF0007F00
0FE000FF00
0FE000FE00
1FE000FE00
1FC001FE00
1FC001FC00
3FC001FC00
3F8003FC00
3F8003FC00
3F8003F800
7F8003F800
7F8007F800
7F800FF000
3FC07FF000
1FFFE7F000
0FFF8FE000
03F00FE000
00000FE000
00001FE000
00001FC000
00001FC000
00003FC000
00003F8000
00003F8000
00003F8000
00007F8000
00007F0000
0000FF8000
0001FF8000
001FFFF000
ENDCHAR

STARTCHAR afii10042
ENCODING 200
SWIDTH 1162 0
DWIDTH 58 0
BBX 65 34 -2 0
BITMAP
003FFFC1FFF83FFF00
0007FE00FFC01FF800
0003FC007F800FF000
0003F8007F000FE000
0003F8007F000FE000
0003F8007F000FE000
0007F800FE001FC000
0007F000FE001FC000
0007F000FE001FC000
000FF001FE003FC000
000FE001FC003F8000
000FE001FC003F8000
000FE001FC007F8000
001FC003F8007F0000
001FC003F8007F0000
001FC003F8007F0000
003FC007F000FF0000
003F8007F000FE0000
003F8007F000FE0000
007F800FF001FE0000
007F000FE001FC0000
007F000FE001FC0000
007F000FE001FC0000
00FE001FC003FC0000
00FE001FC003F80000
00FE001FC003F80000
01FE003FC007F80000
01FC003F8007F00000
01FC003F8007F00000
03FC003F800FF00000
03FC007F800FF00000
03FC00FF801FF00000
0FFFFFFFFFFFF80000
3FFFFFFFFFFFFE0000
ENDCHAR

STARTCHAR afii10043
ENCODING 201
SWIDTH 1162 0
DWIDTH 58 0
BBX 65 44 -2 -10
BITMAP
003FFFC1FFF83FFF00
0007FE00FFC01FF800
0003FC007F800FF000
0003F8007F000FE000
0003F8007F000FE000
0003F8007F000FE000
0007F800FE001FC000
0007F000FE001FC000
0007F000FE001FC000
000FF001FE003FC000
000FE001FC003F8000
000FE001FC003F8000
000FE001FC007F8000
001FC003F8007F0000
001FC003F8007F0000
001FC003F8007F0000
003FC007F000FF0000
003F8007F000FE0000
003F8007F000FE0000
007F800FF001FE0000
007F000FE001FC0000
007F000FE001FC0000
007F000FE001FC0000
00FE001FC003FC0000
00FE001FC003F80000
00FE001FC003F80000
01FE003FC007F80000
01FC003F8007F00000
01FC003F8007F00000
03FC003F800FF00000
03FC007F800FF00000
03FC00FF801FF00000
0FFFFFFFFFFFF80000
3FFFFFFFFFFFFE0000
0000000000007E0000
0000000000003E0000
0000000000001C0000
0000000000001C0000
0000000000000C0000
0000000000000C0000
000000000000080000
000000000000080000
000000000000080000
000000000000100000
ENDCHAR

STARTCHAR afii10044
ENCODING 202
SWIDTH 738 0
DWIDTH 37 0
BBX 34 34 2 0
BITMAP
03FFFFE000
03FFFF0000
07E1FE0000
0781FC0000
0703FC0000
0603F80000
0C03F80000
0807F80000
0007F00000
0007F00000
0007F00000
000FF00000
000FE00000
000FE00000
001FE00000
001FFF8000
001FFFF000
003FC1FC00
003F80FE00
003F807F00
003F807F00
007F807F80
007F007F80
007F007F80
00FF007F80
00FE007F80
00FE00FF00
01FE00FF00
01FE01FF00
01FC03FE00
03FC07FC00
03FC1FF800
07FFFFE000
3FFFFE0000
ENDCHAR

STARTCHAR afii10045
ENCODING 203
SWIDTH 998 0
DWIDTH 50 0
BBX 56 34 -1 0
BITMAP
003FFFC001FFFC
0007FE00003FF0
0007FC00001FE0
0007F800001FE0
0007F800001FC0
0007F000001FC0
0007F000003FC0
000FF000003F80
000FE000003F80
000FE000007F80
000FE000007F80
001FC000007F00
001FC00000FF00
001FC00000FF00
003FC00000FE00
003FFF0000FE00
003FFFE001FE00
007F87F801FC00
007F01FC01FC00
007F00FE03FC00
007F00FE03FC00
00FF00FF03F800
00FE00FF03F800
00FE00FF07F800
01FE00FF07F000
01FC00FF07F000
01FC01FE0FF000
03FC01FE0FF000
03FC03FE0FE000
03F807FC1FE000
07F80FF81FE000
07F83FE01FE000
0FFFFF807FF000
7FFFFC00FFFE00
ENDCHAR

STARTCHAR afii10046
ENCODING 204
SWIDTH 662 0
DWIDTH 33 0
BBX 33 34 -1 0
BITMAP
003FFFC000
0007FE0000
0007FC0000
0007F80000
0007F80000
0007F00000
0007F00000
000FF00000
000FE00000
000FE00000
000FE00000
001FC00000
001FC00000
001FC00000
003FC00000
003FFF0000
003FFFE000
007F87F800
007F01FC00
007F00FE00
007F00FE00
00FF00FF00
00FE00FF00
00FE00FF00
01FE00FF00
01FC00FF00
01FC01FE00
03FC01FE00
03FC03FE00
03F807FC00
07F80FF800
07F83FE000
0FFFFF8000
7FFFFC0000
ENDCHAR

STARTCHAR afii10047
ENCODING 205
SWIDTH 693 0
DWIDTH 35 0
BBX 36 36 0 -1
BITMAP
0020FF8000
007FFFF000
007F87F800
007C01FC00
007800FE00
00E0007F00
00C0007F00
00C0007F80
0180003F80
0100003F80
0100003FC0
0000003FC0
0000003FC0
0000003FC0
0000003FC0
0000003FC0
0000003FC0
000FFFFFC0
000FFFFFC0
0000007F80
0000007F80
0000007F80
0000007F80
000000FF00
000000FF00
000001FE00
000001FC00
000003FC00
600007F800
300007F000
18000FE000
0E003FC000
0780FF8000
01FFFE0000
00FFF80000
000F800000
ENDCHAR

STARTCHAR afii10048
ENCODING 206
SWIDTH 1118 0
DWIDTH 56 0
BBX 58 36 -1 -1
BITMAP
00000000007F0000
003FFFC003FFE000
000FFE001F83F000
0007F8003E01F800
0007F800FC00FC00
0007F001F8007E00
0007F003F0007F00
000FF007E0007F00
000FF00FE0007F00
000FE01FC0007F80
000FE01FC0007F80
001FE03FC0007F80
001FC07F80007F80
001FC07F80007F80
003FC0FF00007F80
003F80FF0000FF80
003F81FF0000FF00
003FFFFE0000FF00
007FFFFE0000FF00
007F01FE0001FF00
007F03FE0001FE00
00FF03FC0001FE00
00FE03FC0003FC00
00FE03FC0003FC00
01FE03FC0003F800
01FE03FC0007F000
01FC03FC0007F000
01FC01FC000FE000
03FC01FC000FC000
03F800FC001F8000
03F800FE003F0000
07F8007E007E0000
07F8003F00F80000
0FFC001F83E00000
7FFF800FFF800000
00000001FC000000
ENDCHAR

STARTCHAR afii10049
ENCODING 207
SWIDTH 708 0
DWIDTH 35 0
BBX 45 34 -4 0
BITMAP
000007FFFFE0
00003FFFFF00
0000FFC1FE00
0001FF01FE00
0003FC01FC00
0007FC01FC00
0007F803FC00
000FF803F800
000FF003F800
000FF007F800
000FF007F000
000FF007F000
0007F00FF000
0007F80FF000
0003FC0FE000
0001FE0FE000
00003FFFE000
00007FFFC000
0001FE1FC000
0003FC3FC000
0007F83F8000
000FF83F8000
001FF03F8000
001FE07F8000
003FC07F0000
007FC07F0000
00FF80FF0000
00FF00FE0000
01FE00FE0000
03FE01FE0000
07FC01FE0000
0FF801FE0000
1FF007FE0000
7FE01FFFC000
ENDCHAR

STARTCHAR afii10065
ENCODING 208
SWIDTH 500 0
DWIDTH 25 0
BBX 27 24 -1 -1
BITMAP
00078000
001E5F80
007C5F80
00F83F80
01F03F00
01F07F00
03E07F00
07E07E00
07C07E00
0FC07E00
0F80FE00
1F80FC00
1F81FC00
1F81FC00
3F03F800
3F03F800
3F07F800
3F0FF800
3F9BF080
3FF3F100
3FF3FB00
1FE3FE00
0FC3FC00
0701F000
ENDCHAR

STARTCHAR afii10066
ENCODING 209
SWIDTH 495 0
DWIDTH 25 0
BBX 27 36 0 -1
BITMAP
00000080
00003F80
0003FF80
0007FF00
001FFE00
003FF800
007F8000
00700000
00E00000
01800000
01800000
03000000
020FE000
063CF800
04F07C00
0DF07C00
0BE07E00
0FE07E00
1FC07E00
1FC07E00
1F807E00
1F80FE00
3F80FE00
3F00FC00
3F00FC00
3F01FC00
3F01F800
7E01F800
7E03F000
7E03E000
7E07E000
3E07C000
3E0F8000
1E0E0000
1F3C0000
07F00000
ENDCHAR

STARTCHAR afii10067
ENCODING 210
SWIDTH 458 0
DWIDTH 23 0
BBX 22 24 0 -1
BITMAP
000FE0
003CF0
00F8F8
01F0F8
03E0F8
07E0F8
07C1F0
0FC1E0
1F83C0
1F8700
3F9C00
3FFE00
3F8F80
3F07C0
7F07E0
7E07E0
7E07E0
7E07E0
7E0FE0
3E0FC0
3E0FC0
1E1F80
0F3E00
07F800
ENDCHAR

STARTCHAR afii10068
ENCODING 211
SWIDTH 398 0
DWIDTH 20 0
BBX 22 24 -2 -1
BITMAP
001FE0
007FF0
00C3F8
0101F8
0001F8
0001F8
0001F0
0001F0
0003E0
000780
000E00
003800
00E000
03C000
0F8000
1F0000
1F0000
3F0000
3F0000
3F8040
3FC180
1FFF00
0FFC00
01F000
ENDCHAR

STARTCHAR afii10069
ENCODING 212
SWIDTH 496 0
DWIDTH 25 0
BBX 25 36 0 -1
BITMAP
001C0000
00070000
00038000
0001C000
0001E000
0000F000
00007800
00007800
00007C00
00003C00
00003E00
00003E00
000FFE00
003C7F00
00783F00
00F03F00
01E03F00
03E03F00
07C03F00
0FC03F00
0FC03F00
1F807F00
1F807E00
3F807E00
3F00FE00
3F00FE00
7F00FC00
7F01FC00
7E01F800
7E01F000
7E03F000
7E03E000
3E078000
1F0F0000
1F1C0000
07F00000
ENDCHAR

STARTCHAR afii10070
ENCODING 213
SWIDTH 437 0
DWIDTH 22 0
BBX 24 24 -1 -1
BITMAP
0003F8
000EFC
00387C
00787C
00F07C
01E0FC
03E0F8
07C0F8
07C1F0
0FC1E0
0F83C0
1F8700
1FBC00
3FC000
3F0000
3F0000
3F0000
3F0000
3F8020
3F8060
1FE380
1FFF00
0FFE00
03F000
ENDCHAR

STARTCHAR afii10072
ENCODING 214
SWIDTH 982 0
DWIDTH 49 0
BBX 52 24 -1 -1
BITMAP
000E0000001F00
003F803F007380
00FFC07E00E3C0
01FFC07E03C7C0
030FE07E078FC0
060FE0FE0F0FC0
0407E0FC0F0FC0
0007E0FC1F0F80
0007E0FC3E0700
0007E1F83E0000
0007E1F87E0000
0007C1F87E0000
0007FFFFFC0000
0007C3F07C0000
0007C3F0FC0000
000F83F0FC0000
0E0F87E0FC0000
1F0F07E0FC0000
3F1E07E0FE0200
3F1E0FC0FF0C00
3E3C0FC07FF800
3C780FC07FF000
1CE01FC03FC000
0F8000000F0000
ENDCHAR

STARTCHAR afii10073
ENCODING 215
SWIDTH 416 0
DWIDTH 21 0
BBX 22 24 -2 -1
BITMAP
033FC0
03E3F0
0381F0
0301F8
0201F8
0401F8
0001F0
0003F0
0007E0
000F80
007C00
001F00
000FC0
0007C0
0007E0
0007E0
0007E0
000FE0
200FE0
201FC0
101F80
1C7F00
0FFE00
03F800
ENDCHAR

STARTCHAR afii10074
ENCODING 216
SWIDTH 500 0
DWIDTH 25 0
BBX 26 24 -1 -1
BITMAP
00380000
0FF83F80
0FF83F00
03F03F00
03F03F00
03F07F00
07E07E00
07E07E00
07E0FE00
07E0FC00
0FC0FC00
0FC1FC00
0FC1F800
1F83F800
1F83F800
1F87F800
1F83F000
3F0BF000
3F17F200
3F27E600
3FE7E400
3FC7F800
3F87F000
1E03E000
ENDCHAR

STARTCHAR afii10075
ENCODING 217
SWIDTH 500 0
DWIDTH 25 0
BBX 26 33 -1 -1
BITMAP
001C0100
003E0200
003E0400
003F1800
001FF000
000FC000
00000000
00000000
00000000
00380000
0FF83F80
0FF83F00
03F03F00
03F03F00
03F07E00
07E07E00
07E07E00
07E0FE00
07E0FC00
0FC0FC00
0FC1FC00
0FC1F800
1F83F800
1F83F800
1F87F800
1F83F000
3F0BF000
3F17F200
3F27E600
3FE7E400
3FC7F800
3F87F000
1E03E000
ENDCHAR

STARTCHAR afii10076
ENCODING 218
SWIDTH 493 0
DWIDTH 25 0
BBX 28 23 -2 0
BITMAP
001E0380
07FE07C0
03FC0FC0
01FC1FC0
01FC1380
01F83000
01F82000
03F86000
03F04000
03F08000
03F70000
07FF0000
07EFC000
07E7C000
0FE7E000
0FC3E000
0FC3F000
0FC1F000
1F81F800
1F80F800
1F80FC00
3F807E00
3F007F00
ENDCHAR

STARTCHAR afii10077
ENCODING 219
SWIDTH 482 0
DWIDTH 24 0
BBX 29 23 -3 -1
BITMAP
003FFFE0
001FFFE0
000E0FC0
000C0FC0
00081FC0
00081F80
00081F80
00183F80
00103F00
00103F00
00307F00
00207E00
00207E00
0020FE00
0060FE00
0040FC00
0040FC00
00C1FC80
3C81F980
7F81FD00
7F01FE00
7E01FC00
3C00F800
ENDCHAR

STARTCHAR afii10078
ENCODING 220
SWIDTH 652 0
DWIDTH 33 0
BBX 37 24 -4 -1
BITMAP
0000700000
000FF007F0
003FF007E0
000FF00FE0
0007F01FE0
0007F81FC0
000FF82FC0
000BF86FC0
000BF85FC0
0019F8DF80
0011F99F80
0011F93F80
0031FB3F00
0021FA3F00
0021FC3F00
0021FC7F00
0061F87E00
0041F87E00
0041F0FE40
1CC1E0FC40
3F81E0FE80
3F81C0FF00
3F0180FE00
3E01807C00
ENDCHAR

STARTCHAR afii10079
ENCODING 221
SWIDTH 512 0
DWIDTH 26 0
BBX 28 23 -2 0
BITMAP
001E0000
07FC0FE0
03FC0FC0
01FC0FC0
01F81FC0
01F81F80
01F81F80
03F81F80
03F03F00
03F03F00
07F03F00
07FFFF00
07E07E00
0FE07E00
0FE0FE00
0FC0FC00
0FC0FC00
1FC1FC80
1F81F880
1F81F900
3F81FE00
3F01FC00
3F00F800
ENDCHAR

STARTCHAR afii10080
ENCODING 222
SWIDTH 500 0
DWIDTH 25 0
BBX 25 24 0 -1
BITMAP
0007F000
001C7C00
00783E00
00F03E00
01E03F00
03E03F00
07C03F00
0FC03F00
0FC03F00
1F807F00
3F807F00
3F807E00
3F00FE00
7F00FE00
7F00FC00
7F00FC00
7E01F800
7E01F000
7E03E000
3E03C000
3E078000
1F0F0000
1F9C0000
07F00000
ENDCHAR

STARTCHAR afii10081
ENCODING 223
SWIDTH 500 0
DWIDTH 25 0
BBX 27 23 -2 0
BITMAP
001E0E00
07FE1F80
07FC7F80
01FCFF80
01FCFF80
01F91F80
01FA1F80
01FC3F80
03F43F00
03F83F00
03F87F00
07F07E00
07F07E00
07E07E00
0FE0FC00
0FC0FC00
0FC0FC00
1FC1FC80
1F81F980
1F81F900
1F81FE00
3F81FC00
3F00F800
ENDCHAR

STARTCHAR afii10082
ENCODING 224
SWIDTH 500 0
DWIDTH 25 0
BBX 32 34 -7 -11
BITMAP
000071E0
003FF3F8
003FF7F8
000FFFFC
0007F1FC
0007E0FC
000FE0FC
000FC0FC
000FC0FC
001FC0FC
001F80FC
001F80F8
001F81F8
003F81F8
003F01F0
003F03F0
007F03E0
007E03E0
007E07C0
00FE0780
00FE0F00
00FC1E00
00FE3800
01FFE000
01F80000
01F80000
03F80000
03F00000
03F00000
03F00000
07F00000
07F00000
1FF80000
7FFE0000
ENDCHAR

STARTCHAR afii10083
ENCODING 225
SWIDTH 437 0
DWIDTH 22 0
BBX 23 24 -1 -1
BITMAP
0003F0
000E38
00383C
00787C
01F0FC
01E0FC
03E0F8
07C0F8
0FC000
0F8000
1F8000
1F8000
1F8000
3F0000
3F0000
3F0000
3F0000
3F8000
3F8020
3FC060
1FE3C0
1FFF00
0FFE00
03F800
ENDCHAR

STARTCHAR afii10084
ENCODING 226
SWIDTH 771 0
DWIDTH 39 0
BBX 40 23 -1 0
BITMAP
001C0F80F8
0FFC3FC1FC
07FC7FC3FC
03F8FFC7FC
01F99FCCFC
03FB1FD8FC
03F61FB0FC
03F41FA1FC
03F83FC1F8
07F83F81F8
07F03F81F8
07E03F03F0
0FE07F03F0
0FE07E03F0
0FC07E07E0
1FC0FE07E0
1F80FC07E0
1F80FC0FE4
1F81FC0FCC
3F81F80FE8
3F01F80FF0
3F01F80FE0
7F03F807C0
ENDCHAR

STARTCHAR afii10085
ENCODING 227
SWIDTH 500 0
DWIDTH 25 0
BBX 30 33 -4 -11
BITMAP
003E03E0
01FF03F0
003F03F0
003F03F0
001F81F0
001F80F0
001F8060
001F8060
001F8040
001F80C0
001F8080
001F8180
001F8100
001F8200
001F8600
001F8400
000FC800
000FD800
000FF000
000FE000
000FC000
000FC000
000F8000
000F0000
000E0000
000C0000
080C0000
3C180000
7E300000
7FE00000
7FC00000
3F000000
1E000000
ENDCHAR

STARTCHAR afii10086
ENCODING 228
SWIDTH 714 0
DWIDTH 36 0
BBX 35 46 0 -11
BITMAP
000000E000
00003FE000
00001FE000
00000FC000
00000FC000
00000FC000
00000FC000
00001F8000
00001F8000
00001F8000
00003F0000
00003F0000
001F3F3C00
007FBF7F00
00F9FE8F00
01F0FF0F80
03E0FE0F80
07E0FE0FC0
0FC0FC0FC0
0FC0FC0FC0
1FC1FC0FC0
1F81F80FC0
3F81F81FC0
3F81F81F80
3F03F01F80
7F03F03F80
7F03F03F00
7E07F03F00
7E07E07E00
7E07E07E00
7E0FE07C00
3E0FE0F800
3E1FE1F000
1F2FF1E000
1FDFDFC000
079F8F0000
001F800000
001F800000
003F000000
003F000000
003F000000
007F000000
007F000000
007F000000
01FF800000
07FFE00000
ENDCHAR

STARTCHAR afii10087
ENCODING 229
SWIDTH 552 0
DWIDTH 28 0
BBX 28 24 -1 -1
BITMAP
000C03C0
03FE07C0
04FE0FE0
007E1FE0
003F3FC0
003F2000
003F4000
003FC000
001F8000
001F8000
001F8000
001F8000
001F8000
001FC000
000FC000
001FC000
001FC000
002FE000
0067E100
3EC7E300
7F87FE00
7F03FC00
7E03F800
3C00E000
ENDCHAR

STARTCHAR afii10088
ENCODING 230
SWIDTH 501 0
DWIDTH 25 0
BBX 26 33 -1 -10
BITMAP
00780000
0FF81F80
0FF83F80
03F03F00
03F03F00
03F07F00
07F07E00
07E07E00
07E07E00
07E0FC00
0FC0FC00
0FC1FC00
0FC1FC00
1FC3F800
1F83F800
1F87F800
1F87F000
3F0BF000
3F13F200
3FB7F200
3FE7E400
3FC7FC00
3F87F800
1F03E800
00001800
00001800
00003C00
00003C00
00001C00
00001C00
00001800
00001000
00002000
ENDCHAR

STARTCHAR afii10089
ENCODING 231
SWIDTH 486 0
DWIDTH 24 0
BBX 24 24 1 -1
BITMAP
00E000
3FE0FE
1FE0FC
0FC0FC
0FC1FC
0FC1F8
1FC1F8
1F81F8
1F83F8
3F83F0
3F03F0
3F07F0
3F8FE0
3FFFE0
1FEFE0
0F8FC0
000FC0
000FC0
001FC8
001F90
001FF0
001FE0
001FC0
000F80
ENDCHAR

STARTCHAR afii10090
ENCODING 232
SWIDTH 776 0
DWIDTH 39 0
BBX 40 24 -1 -1
BITMAP
0038000000
0FF81FC0FE
0FF81F80FC
03F01F80FC
03F01F80FC
03F03F81F8
07E03F01F8
07E03F01F8
07E07F03F8
07E07E03F0
0FC07E03F0
0FC0FE07F0
0FC0FC07E0
1F81FC0FE0
1F81FC1FE0
1F82FC1FC0
1F85F82FC0
3F0DF86FC0
3F19F8DFC8
3F31F99F98
3FE3FF1F90
3FC3FE1FE0
3F81FC1FC0
1F00F00F80
ENDCHAR

STARTCHAR afii10091
ENCODING 233
SWIDTH 776 0
DWIDTH 39 0
BBX 40 32 -1 -9
BITMAP
0038000000
0FF81FC0FE
0FF81F80FC
03F01F80FC
03F01F81FC
03F03F81F8
07E03F01F8
07E03F01F8
07E07F03F0
07E07E03F0
0FC07E03F0
0FC0FE07F0
0FC0FC07E0
1F81FC0FE0
1F81FC1FE0
1F83FC1FC0
1F85F82FC0
3F0DF86FC0
3F19F8DFC8
3F33F99F98
3FE3FF1FB0
3FC3FE1FF0
3F81FC1FE0
1F00F00F20
0000000060
00000000E0
00000000F0
00000000F0
0000000070
0000000060
0000000060
00000000C0
ENDCHAR

STARTCHAR afii10092
ENCODING 234
SWIDTH 523 0
DWIDTH 26 0
BBX 25 23 0 -1
BITMAP
0FFF8000
1FFF8000
1FFF0000
183F0000
303F0000
207E0000
207E0000
00FC0000
00FCFC00
00FDFE00
01FA7E00
01FC3F00
03F83F00
03F83F00
03F03F00
03F07F00
07E07E00
07E07E00
07E0FC00
03E0F800
03E1F000
01F3E000
007F8000
ENDCHAR

STARTCHAR afii10093
ENCODING 235
SWIDTH 667 0
DWIDTH 33 0
BBX 35 24 0 -1
BITMAP
0038000780
0FF801FF80
0FF001FF00
07F0007F00
03F0007F00
03F0007E00
07E0007E00
07E0007E00
07E000FE00
0FCFC0FC00
0FDFE0FC00
0FE7E0FC00
1FC3F1F800
1F83F1F800
1F83F1F800
3F03F3F000
3F07F3F000
3F07E3F000
3E07E7F200
3E0FC7E200
3E0F87E400
1E1F07F800
0F3E07F000
07F803E000
ENDCHAR

STARTCHAR afii10094
ENCODING 236
SWIDTH 449 0
DWIDTH 22 0
BBX 21 24 0 -1
BITMAP
007800
1FF800
1FF000
07F000
07F000
07E000
07E000
0FE000
0FC000
0FCFC0
1FDFE0
1FA7E0
1FC3F0
3F83F0
3F83F0
3F03F0
3F07F0
7E07E0
7E07E0
7E0FC0
3E0F80
3E1F00
1F3E00
07F800
ENDCHAR

STARTCHAR afii10095
ENCODING 237
SWIDTH 415 0
DWIDTH 21 0
BBX 22 24 -2 -1
BITMAP
037F80
03C7E0
0383E0
0301F0
0601F8
0601F8
0401F8
0001F8
0001F8
0001F8
0003F8
00FFF8
0003F0
0007F0
0007F0
0007E0
000FE0
000FC0
001FC0
201F80
303F00
18FE00
0FFC00
07F000
ENDCHAR

STARTCHAR afii10096
ENCODING 238
SWIDTH 693 0
DWIDTH 35 0
BBX 37 23 -2 0
BITMAP
001E003F80
07FC01E3C0
03FC03C3E0
01FC0783E0
01F80F03F0
01F81F03F0
01F83F03F0
03F87E03F0
03F07E07F0
03F0FC07F0
07F0FC07E0
07FFFC0FE0
07E1F80FE0
07E1F80FC0
0FC3F81FC0
0FC3F81F80
0FC3F01F00
1FC3F03E00
1F83F03E00
1F81F07800
1F81F0F000
3F00F9E000
3F003F0000
ENDCHAR

STARTCHAR afii10097
ENCODING 239
SWIDTH 494 0
DWIDTH 25 0
BBX 30 23 -5 -1
BITMAP
0003FFF8
000FE3F0
001F83F0
003F07F0
007F07E0
007E07E0
007E07E0
007E0FE0
007E0FC0
003F0FC0
001FFFC0
0007DF80
001F9F80
003F3F80
003E3F00
007E3F00
00FC7F00
01F87F20
03F07E60
03E07F40
07E07F80
1FC07F00
00003E00
ENDCHAR

STARTCHAR afii61352
ENCODING 240
SWIDTH 1000 0
DWIDTH 50 0
BBX 54 35 -3 -1
BITMAP
0003FF000F8000
0000FF001FC000
00007F003FE000
00007F007FE000
00007F806FE000
00007F8047C000
00007F80C3C000
00007F80C00000
0000FFC0800000
0000DFC1800000
0000DFC1801F80
0000DFC18039E0
00019FC300F0F0
00018FE300F0F0
00018FE301E0F0
00030FE203E1F0
00030FE603E1F0
000307F607C1F0
000207F607C1F0
000607FC07C3E0
000607FC0F83E0
000603FC0F83E0
000C03F80F87C0
000C03F8078780
000C03F8078F00
001801F0039E00
001801F001F800
001801F0000000
0C1001F0000000
3E3000E0000000
3F3000E03FFF80
3FE000E07FFF00
3FC000C07FFF00
1F8000C07FFF00
0F000040000000
ENDCHAR

STARTCHAR afii10071
ENCODING 241
SWIDTH 437 0
DWIDTH 22 0
BBX 26 35 -1 -1
BITMAP
00180C00
003E1F00
007E3F00
007E3F00
007E3F00
003E1F00
00180C00
00000000
00000000
00000000
00000000
0003F000
001CF800
0038F800
0070F800
00F0F800
01E0F800
03E0F000
07C1F000
07C1E000
0F83C000
1F878000
1F8F0000
1F7C0000
3FC00000
3F000000
3F000000
3F000000
3F002000
3F804000
3F80C000
1FC38000
1FFE0000
0FFC0000
03F00000
ENDCHAR

STARTCHAR afii10099
ENCODING 242
SWIDTH 472 0
DWIDTH 24 0
BBX 27 46 -2 -11
BITMAP
0001C000
007FC000
007FC000
001FC000
001F8000
001F8000
01FFFF80
003F0000
003F0000
007F0000
007E0000
007E0000
007E0F00
00FC3F80
00FC7F80
00FCFF80
01FDFF80
01F91F80
01FA1F80
01FC1F80
03F43F80
03F83F00
03F83F00
07F07F00
07F07F00
07E07E00
0FE0FE00
0FC0FC00
0FC0FC00
0FC0FC00
1F81F800
1F81F800
1F81F000
3F83F000
3F03E000
0003C000
0007C000
00078000
000F0000
000E0000
001E0000
00380000
00300000
00600000
00800000
01000000
ENDCHAR

STARTCHAR afii10100
ENCODING 243
SWIDTH 406 0
DWIDTH 20 0
BBX 30 35 -3 0
BITMAP
000007F8
000007E0
00000FC0
00001F00
00003E00
00007C00
00007000
0000E000
00018000
00000000
00000000
00000000
00000000
00FFFF80
007F0F00
007F0700
007F0300
007E0200
007E0200
00FE0000
00FC0000
00FC0000
00FC0000
01F80000
01F80000
01F80000
03F00000
03F00000
03F00000
07F00000
07E00000
07E00000
0FE00000
0FE00000
3FF00000
ENDCHAR

STARTCHAR afii10101
ENCODING 244
SWIDTH 426 0
DWIDTH 21 0
BBX 26 24 -1 -1
BITMAP
000FF300
003F3E00
007C1E00
00F80E00
01F80C00
03F00C00
03E00800
07E00000
0FC00000
0FC00000
1FC00000
1FFF8000
1F800000
3F800000
3F800000
3F000000
3F000000
3F000000
3F004000
3F008000
1F810000
1FC60000
0FFC0000
07E00000
ENDCHAR

STARTCHAR afii10102
ENCODING 245
SWIDTH 385 0
DWIDTH 19 0
BBX 20 23 -1 0
BITMAP
007E60
01E7C0
03C1C0
07C1C0
07C0C0
07E0C0
07E0C0
07F000
03F800
03FC00
01FC00
01FE00
00FE00
007F00
003F00
303F00
301F00
301F00
381E00
381E00
3C1C00
7E3800
63E000
ENDCHAR

STARTCHAR afii10103
ENCODING 246
SWIDTH 271 0
DWIDTH 14 0
BBX 17 36 -1 -1
BITMAP
001800
007E00
007F00
00FF00
00FF00
007E00
003E00
000000
000000
000000
000000
000000
003C00
0FF800
0FF800
03F800
03F000
03F000
03F000
07F000
07E000
07E000
07E000
0FC000
0FC000
0FC000
1FC000
1F8000
1F8000
1F8800
3F1000
3F1000
3FA000
3FC000
3F8000
1F0000
ENDCHAR

STARTCHAR afii10104
ENCODING 247
SWIDTH 271 0
DWIDTH 14 0
BBX 21 35 -1 -1
BITMAP
030180
0787E0
0FC7E0
0FC7E0
0FC7E0
0F87E0
030180
000000
000000
000000
000000
003C00
0FF800
0FF800
03F800
03F000
03F000
03F000
07F000
07E000
07E000
07E000
0FE000
0FC000
0FC000
1FC000
1F8000
1F8000
1F8800
3F9800
3F1000
3FA000
3FC000
3F8000
1F0000
ENDCHAR

STARTCHAR afii10105
ENCODING 248
SWIDTH 271 0
DWIDTH 14 0
BBX 25 47 -9 -11
BITMAP
00001C00
00007E00
00007E00
0000FF00
0000FF00
00007E00
00007E00
00003C00
00000000
00000000
00000000
00000000
00000000
00001C00
000FFC00
000FFC00
0003F800
0001F800
0001F800
0001F800
0003F000
0003F000
0003F000
0003F000
0007E000
0007E000
0007E000
0007E000
000FC000
000FC000
000FC000
001FC000
001F8000
001F8000
001F8000
003F8000
003F0000
003F0000
003E0000
007E0000
007C0000
007C0000
3C780000
7CF80000
7CF00000
79C00000
3F000000
ENDCHAR

STARTCHAR afii10106
ENCODING 249
SWIDTH 679 0
DWIDTH 34 0
BBX 37 24 -4 -1
BITMAP
000007E000
00003FE000
000067E000
0000CFC000
00018FC000
00030FC000
00021F8000
00061F8000
00041F8000
000C1F9F80
00083F3FC0
00183F4FC0
00183F87E0
00107F07E0
00307F07E0
00207E07E0
00207E0FE0
0060FC0FC0
0040FC0FC0
1EC0FC1F80
3F807C1F00
3F807C3E00
3F003E7C00
1C000FE000
ENDCHAR

STARTCHAR afii10107
ENCODING 250
SWIDTH 709 0
DWIDTH 35 0
BBX 37 24 -2 -1
BITMAP
001E00E000
07FE3FE000
03FC3FE000
01FC1FC000
01FC0FC000
01F81FC000
01F81F8000
01F81F8000
03F81F8000
03F03F9F80
03F03F7FC0
07FFFFCFC0
07E07F87E0
07E07F07E0
0FE07E07E0
0FC07E07E0
0FC0FE07E0
0FC0FC0FE0
1FC0FC0FC0
1F80FC1F80
1F807C1F80
3F807C3F00
3F003E7C00
00000FF000
ENDCHAR

STARTCHAR afii10108
ENCODING 251
SWIDTH 500 0
DWIDTH 25 0
BBX 27 35 -2 0
BITMAP
0003C000
00FFC000
007F8000
003F8000
003F8000
003F0000
01FFFF00
003F0000
007E0000
007E0000
007E0000
00FE0000
00FC1F00
00FC3F00
01FC7F80
01F8FF80
01F9FF80
01FB3F80
03F63F00
03F43F00
03F83F00
07F87F00
07F07E00
07F07E00
07E07E00
0FE0FC00
0FC0FC00
0FC0FC00
1FC0F800
1F81F880
1F81F900
3F81FF00
3F01FE00
3F01FC00
3F00F000
ENDCHAR

STARTCHAR afii10109
ENCODING 252
SWIDTH 495 0
DWIDTH 25 0
BBX 31 35 -2 0
BITMAP
000003FC
000003F0
000007E0
00000F80
00001F00
00003C00
00003800
00007000
0000C000
00000000
00000000
00000000
001E0380
07FC07C0
03FC0FC0
01FC1FC0
01FC1380
01F83000
01F82000
03F86000
03F04000
03F08000
03F70000
07FF0000
07EFC000
07E7C000
0FE7E000
0FC3E000
0FC3F000
1FC1F000
1F81F800
1F80F800
1F80FC00
3F807C00
3F007F00
ENDCHAR

STARTCHAR section
ENCODING 253
SWIDTH 604 0
DWIDTH 30 0
BBX 30 45 1 -10
BITMAP
0000FC00
0003FF80
000F03C0
001E01E0
001C00F0
003C00F0
003C01F8
007C01F8
007E01F8
007E00F0
003F0000
003F8000
003FC000
001FF000
007FF800
00E7FC00
01C3FE00
0181FE00
0380FF00
03807F00
07803F80
07801F80
07C00F80
07C00780
07E00780
07F00780
07F80700
03FC0700
01FE0E00
01FF0C00
00FF9800
007FF000
003FE000
001FE000
000FF000
0003F000
3C03F000
7E01F000
7E01F000
7E01E000
3C01E000
3C01C000
1E038000
0F0F0000
03FC0000
ENDCHAR

STARTCHAR afii10110
ENCODING 254
SWIDTH 500 0
DWIDTH 25 0
BBX 30 42 -4 -11
BITMAP
00038020
0007C040
0007C080
0007E380
0003FE00
0001FC00
00000000
00000000
00000000
000E01E0
01FF03F0
007F03F0
003F03F0
001F83F0
001F80F0
001F8060
001F8060
001F8060
001F80C0
001F8080
001F8180
001F8100
001F8300
001F8600
001F8400
000FCC00
000FD800
000FF000
000FE000
000FC000
000FC000
000F8000
000F0000
000E0000
000C0000
000C0000
3C180000
7E300000
7FE00000
7FC00000
3F800000
1E000000
ENDCHAR

STARTCHAR afii10193
ENCODING 255
SWIDTH 501 0
DWIDTH 25 0
BBX 27 32 -1 -10
BITMAP
00FC1FC0
0FF81F80
03F81F80
03F81F80
03F83F00
03F03F00
03F03F00
07F07F00
07E07E00
07E07E00
07E0FE00
0FE0FC00
0FC1FC00
0FC3FC00
1FC3FC00
1F85F800
1F8DF800
3F9BF900
3FB3F200
3FE3F600
3FE3FC00
1F83F800
0F01F000
02000000
0E000000
1E000000
1E000000
1E000000
1E000000
1C000000
38000000
30000000
ENDCHAR
ENDFONT
